<mxfile host="app.diagrams.net" agent="Mozilla/5.0 (Macintosh; Intel Mac OS X 10_15_7) AppleWebKit/537.36 (KHTML, like Gecko) Chrome/134.0.0.0 Safari/537.36" version="26.2.13">
  <diagram name="Page-1" id="3FAFO_fdP_l-H9JC5I4a">
    <mxGraphModel dx="1508" dy="1085" grid="1" gridSize="10" guides="1" tooltips="1" connect="1" arrows="1" fold="1" page="0" pageScale="1" pageWidth="400" pageHeight="800" math="0" shadow="0">
      <root>
        <mxCell id="0" />
        <mxCell id="1" parent="0" />
        <mxCell id="6CFEBmQpigZl-cbhVpuX-1" value="" style="shape=image;verticalLabelPosition=bottom;labelBackgroundColor=default;verticalAlign=top;aspect=fixed;imageAspect=0;image=data:image/png,iVBORw0KGgoAAAANSUhEUgAABc4AAAKyCAYAAADsN00VAAAMP2lDQ1BJQ0MgUHJvZmlsZQAASImVVwdYU8kWnluSkEBCCV1K6E0QkRJASggt9I5gIyQBQokxEFTsZVHBtaAiAjZ0VUSxA2JBETuLYu+LBRVlXSzYlTcpoOu+8r3zfXPvf/85858z584tA4D6ca5YnItqAJAnKpDEhQQwxqSkMkg9AAE0oA2YwIvLyxezYmIiALTB89/t3XXoDe2Ko0zrn/3/1TT5gnweAEgMxOn8fF4exAcAwKt5YkkBAEQZbzGlQCzDsAFtCUwQ4kUynKnA1TKcrsB75D4JcWyI2wBQUeNyJZkA0C5BnlHIy4QatD6InUV8oQgAdQbEvnl5k/gQp0FsC33EEMv0mek/6GT+TTN9SJPLzRzCirnITSVQmC/O5U77P8vxvy0vVzoYwxo2tSxJaJxszrBuN3MmhcuwGsS9ovSoaIi1IP4g5Mv9IUYpWdLQRIU/asTLZ8OaAV2InfncwHCIjSAOFuVGRSj59AxhMAdiuELQqcICTgLE+hAvEuQHxSt9NkomxSljoQ0ZEjZLyZ/lSuRxZbHuS3MSWUr911kCjlIfoxVlJSRDTIHYslCYFAUxDWKn/Jz4cKXP6KIsdtSgj0QaJ8vfEuI4gSgkQKGPFWZIguOU/iV5+YPzxTZmCTlRSryvICshVFEfrI3HlecP54JdEohYiYM6gvwxEYNz4QsCgxRzx54JRInxSp0P4oKAOMVYnCLOjVH64+aC3BAZbw6xa35hvHIsnlQAF6RCH88QF8QkKPLEi7K5YTGKfPDlIAKwQSBgACls6WASyAbCjt7GXnil6AkGXCABmUAAHJXM4IhkeY8IHuNBEfgTIgHIHxoXIO8VgELIfx1iFUdHkCHvLZSPyAFPIM4D4SAXXkvlo0RD0ZLAY8gI/xGdCxsP5psLm6z/3/OD7HeGBZkIJSMdjMhQH/QkBhEDiaHEYKIdboj74t54BDz6w+aCM3HPwXl89yc8IXQSHhKuEboItyYK50l+yjISdEH9YGUt0n+sBW4NNd3wANwHqkNlXBc3BI64K4zDwv1gZDfIspV5y6rC+En7bzP44W4o/cjOZJSsR/Yn2/48kmZPcxtSkdX6x/oock0fqjd7qOfn+Owfqs+H5/CfPbFF2H7sDHYCO4cdwRoBA2vBmrB27KgMD62ux/LVNRgtTp5PDtQR/iPe4J2VVTLfuc65x/mLoq9AMFX2jgbsSeJpEmFmVgGDBb8IAgZHxHMaznBxdnEDQPZ9Uby+3sTKvxuIbvt3bv4fAPi0DAwMHP7OhbUAsNcDPv6HvnO2TPjpUAXg7CGeVFKo4HDZgQDfEurwSTMAJsAC2ML5uAB34A38QRAIA9EgAaSACTD7LLjOJWAKmAHmgmJQCpaD1aASbACbwXawC+wDjeAIOAFOgwvgErgG7sDV0w1egD7wDnxGEISEUBE6YoCYIlaIA+KCMBFfJAiJQOKQFCQNyUREiBSZgcxHSpEypBLZhNQie5FDyAnkHNKJ3EIeID3Ia+QTiqFqqDZqjFqjI1AmykLD0QR0PJqJTkaL0AXoUrQCrUF3og3oCfQCeg3tQl+g/RjAVDFdzAxzxJgYG4vGUrEMTILNwkqwcqwGq8ea4X2+gnVhvdhHnIjTcQbuCFdwKJ6I8/DJ+Cx8CV6Jb8cb8Db8Cv4A78O/EagEI4IDwYvAIYwhZBKmEIoJ5YSthIOEU/BZ6ia8IxKJukQbogd8FlOI2cTpxCXEdcTdxOPETuIjYj+JRDIgOZB8SNEkLqmAVExaS9pJaiFdJnWTPqioqpiquKgEq6SqiFTmqZSr7FA5pnJZ5anKZ7IG2YrsRY4m88nTyMvIW8jN5IvkbvJniibFhuJDSaBkU+ZSKij1lFOUu5Q3qqqq5qqeqrGqQtU5qhWqe1TPqj5Q/aimpWavxlYbpyZVW6q2Te242i21N1Qq1ZrqT02lFlCXUmupJ6n3qR9odJoTjUPj02bTqmgNtMu0l+pkdSt1lvoE9SL1cvX96hfVezXIGtYabA2uxiyNKo1DGjc0+jXpmiM1ozXzNJdo7tA8p/lMi6RlrRWkxddaoLVZ66TWIzpGt6Cz6Tz6fPoW+il6tzZR20abo52tXaq9S7tDu09HS8dVJ0lnqk6VzlGdLl1M11qXo5uru0x3n+513U96xnosPYHeYr16vct67/WH6fvrC/RL9HfrX9P/ZMAwCDLIMVhh0GhwzxA3tDeMNZxiuN7wlGHvMO1h3sN4w0qG7Rt22wg1sjeKM5putNmo3ajf2MQ4xFhsvNb4pHGvia6Jv0m2ySqTYyY9pnRTX1Oh6SrTFtPnDB0Gi5HLqGC0MfrMjMxCzaRmm8w6zD6b25gnms8z321+z4JiwbTIsFhl0WrRZ2lqGWk5w7LO8rYV2YpplWW1xuqM1XtrG+tk64XWjdbPbPRtODZFNnU2d22ptn62k21rbK/aEe2Ydjl26+wu2aP2bvZZ9lX2Fx1QB3cHocM6h87hhOGew0XDa4bfcFRzZDkWOtY5PnDSdYpwmufU6PRyhOWI1BErRpwZ8c3ZzTnXeYvznZFaI8NGzhvZPPK1i70Lz6XK5eoo6qjgUbNHNY165ergKnBd73rTje4W6bbQrdXtq7uHu8S93r3Hw9IjzaPa4wZTmxnDXMI860nwDPCc7XnE86OXu1eB1z6vv7wdvXO8d3g/G20zWjB6y+hHPuY+XJ9NPl2+DN80342+XX5mfly/Gr+H/hb+fP+t/k9Zdqxs1k7WywDnAEnAwYD3bC/2TPbxQCwwJLAksCNIKygxqDLofrB5cGZwXXBfiFvI9JDjoYTQ8NAVoTc4xhwep5bTF+YRNjOsLVwtPD68MvxhhH2EJKI5Eo0Mi1wZeTfKKkoU1RgNojnRK6PvxdjETI45HEuMjYmtin0SNzJuRtyZeHr8xPgd8e8SAhKWJdxJtE2UJrYmqSeNS6pNep8cmFyW3DVmxJiZYy6kGKYIU5pSSalJqVtT+8cGjV09tnuc27jicdfH24yfOv7cBMMJuROOTlSfyJ24P42Qlpy2I+0LN5pbw+1P56RXp/fx2Lw1vBd8f/4qfo/AR1AmeJrhk1GW8SzTJ3NlZk+WX1Z5Vq+QLawUvsoOzd6Q/T4nOmdbzkBucu7uPJW8tLxDIi1RjqhtksmkqZM6xQ7iYnHXZK/Jqyf3ScIlW/OR/PH5TQXa8Ee+XWor/UX6oNC3sKrww5SkKfunak4VTW2fZj9t8bSnRcFFv03Hp/Omt84wmzF3xoOZrJmbZiGz0me1zraYvWB295yQOdvnUubmzP19nvO8snlv5yfPb15gvGDOgke/hPxSV0wrlhTfWOi9cMMifJFwUcfiUYvXLv5Wwi85X+pcWl76ZQlvyflfR/5a8evA0oylHcvcl61fTlwuWn59hd+K7WWaZUVlj1ZGrmxYxVhVsurt6omrz5W7lm9YQ1kjXdNVEVHRtNZy7fK1XyqzKq9VBVTtrjaqXlz9fh1/3eX1/uvrNxhvKN3waaNw481NIZsaaqxryjcTNxdufrIlacuZ35i/1W413Fq69es20bau7XHb22o9amt3GO1YVofWSet6do7beWlX4K6mesf6Tbt1d5fuAXuke57vTdt7fV/4vtb9zP31B6wOVB+kHyxpQBqmNfQ1ZjV2NaU0dR4KO9Ta7N188LDT4W1HzI5UHdU5uuwY5diCYwMtRS39x8XHe09knnjUOrH1zskxJ6+2xbZ1nAo/dfZ08OmTZ1hnWs76nD1yzuvcofPM840X3C80tLu1H/zd7feDHe4dDRc9LjZd8rzU3Dm689hlv8snrgReOX2Vc/XCtahrndcTr9+8Me5G103+zWe3cm+9ul14+/OdOXcJd0vuadwrv290v+YPuz92d7l3HX0Q+KD9YfzDO494j148zn/8pXvBE+qT8qemT2ufuTw70hPcc+n52OfdL8QvPvcW/6n5Z/VL25cH/vL/q71vTF/3K8mrgddL3hi82fbW9W1rf0z//Xd57z6/L/lg8GH7R+bHM5+SPz39POUL6UvFV7uvzd/Cv90dyBsYEHMlXPmvAAYbmpEBwOttAFBTAKDD/RllrGL/JzdEsWeVI/CfsGKPKDd3AOrh/3tsL/y7uQHAni1w+wX11ccBEEMFIMEToKNGDbXBvZp8XykzItwHbEz8mp6XDv6NKfacP+T98xnIVF3Bz+d/Ab8zfKj0q27ZAAAAimVYSWZNTQAqAAAACAAEARoABQAAAAEAAAA+ARsABQAAAAEAAABGASgAAwAAAAEAAgAAh2kABAAAAAEAAABOAAAAAAAAAJAAAAABAAAAkAAAAAEAA5KGAAcAAAASAAAAeKACAAQAAAABAAAFzqADAAQAAAABAAACsgAAAABBU0NJSQAAAFNjcmVlbnNob3S8qxdiAAAACXBIWXMAABYlAAAWJQFJUiTwAAAB12lUWHRYTUw6Y29tLmFkb2JlLnhtcAAAAAAAPHg6eG1wbWV0YSB4bWxuczp4PSJhZG9iZTpuczptZXRhLyIgeDp4bXB0az0iWE1QIENvcmUgNi4wLjAiPgogICA8cmRmOlJERiB4bWxuczpyZGY9Imh0dHA6Ly93d3cudzMub3JnLzE5OTkvMDIvMjItcmRmLXN5bnRheC1ucyMiPgogICAgICA8cmRmOkRlc2NyaXB0aW9uIHJkZjphYm91dD0iIgogICAgICAgICAgICB4bWxuczpleGlmPSJodHRwOi8vbnMuYWRvYmUuY29tL2V4aWYvMS4wLyI+CiAgICAgICAgIDxleGlmOlBpeGVsWURpbWVuc2lvbj42OTA8L2V4aWY6UGl4ZWxZRGltZW5zaW9uPgogICAgICAgICA8ZXhpZjpQaXhlbFhEaW1lbnNpb24+MTQ4NjwvZXhpZjpQaXhlbFhEaW1lbnNpb24+CiAgICAgICAgIDxleGlmOlVzZXJDb21tZW50PlNjcmVlbnNob3Q8L2V4aWY6VXNlckNvbW1lbnQ+CiAgICAgIDwvcmRmOkRlc2NyaXB0aW9uPgogICA8L3JkZjpSREY+CjwveDp4bXBtZXRhPgrgTUlRAAAAHGlET1QAAAACAAAAAAAAAVkAAAAoAAABWQAAAVkAAIrWnk6cjAAAQABJREFUeAHs3Qe4JFWZP+BCGDIMaQgKSM5JQAEJEpYgUYmCoKAgEiQKq+IKiiAsigT/oJJFQQSRrIDkoCRJknMaEBhyDlv/+mq3sRi673R1uLe7663nmef2vdOh6j1fVXf/6tQ5E3384x9Px44dm1gIECBAgAABAgQIECBAgAABAgQIECBAgACBJJlIcK4MCBAgQIAAAQIECBAgQIAAAQIECBAgQIDAvwUE5/+2cIsAAQIECBAgQIAAAQIECBAgQIAAAQIECOhxrgYIECBAgAABAgQIECBAgAABAgQIECBAgEBRQI/zoobbBAgQIECAAAECBAgQIECAAAECBAgQIFB5AcF55UsAAAECBAgQIECAAAECBAgQIECAAAECBAgUBQTnRQ23CRAgQIAAAQIECBAgQIAAAQIECBAgQKDyAoLzypcAAAIECBAgQIAAAQIECBAgQIAAAQIECBAoCgjOixpuEyBAgAABAgQIECBAgAABAgQIECBAgEDlBQTnlS8BAAQIECBAgAABAgQIECBAgAABAgQIECBQFBCcFzXcJkCAAAECBAgQIECAAAECBAgQIECAAIHKCwjOK18CAAgQIECAAAECBAgQIECAAAECBAgQIECgKCA4L2q4TYAAAQIECBAgQIAAAQIECBAgQIAAAQKVFxCcV74EABAgQIAAAQIECBAgQIAAAQIECBAgQIBAUUBwXtRwmwABAgQIECBAgAABAgQIECBAgAABAgQqLyA4r3wJACBAgAABAgQIECBAgAABAgQIECBAgACBooDgvKjhNgECBAgQIECAAAECBAgQIECAAAECBAhUXkBwXvkSAECAAAECBAgQIECAAAECBAgQIECAAAECRQHBeVHDbQIECBAgQIAAAQIECBAgQIAAAQIECBCovIDgvPIlAIAAAQIECBAgQIAAAQIECBAgQIAAAQIEigKC86KG2wQIECBAgAABAgQIECBAgAABAgQIECBQeQHBeeVLAAABAgQIECBAgAABAgQIECBAgAABAgQIFAUE50UNtwkQIECAAAECBAgQIECAAAECBAgQIECg8gKC88qXAAACBAgQIECAAAECBAgQIECAAAECBAgQKAoIzosabhMgQIAAAQIECBAgQIAAAQIECBAgQIBA5QUE55UvAQAECBAgQIAAAQIECBAgQIAAAQIECBAgUBQQnBc13CZAgAABAgQIECBAgAABAgQIECBAgACBygsIzitfAgAIECBAgAABAgQIECBAgAABAgQIECBAoCggOC9quE2AAAECBAgQIECAAAECBAgQIECAAAEClRcQnFe+BAAQIECAAAECBAgQIECAAAECBAgQIECAQFFAcF7UcJsAAQIECBAgQIAAAQIECBAgQIAAAQIEKi8gOK98CQAgQIAAAQIECBAgQIAAAQIECBAgQIAAgaKA4Lyo4TYBAgQIECBAgAABAgQIECBAgAABAgQIVF5AcF75EgBAgAABAgQIECBAgAABAgQIECBAgAABAkUBwXlRw20CBAgQIECAAAECBAgQIECAAAECBAgQqLyA4LzyJQCAAAECBAgQIECAAAECBAgQIECAAAECBIoCgvOihtsECBAgQIAAAQIECBAgQIAAAQIECBAgUHkBwXnlSwAAAQIECBAgQIAAAQIECBAgQIAAAQIECBQFBOdFDbcJECBAgAABAgQIECBAgAABAgQIECBAoPICgvPKlwAAAgQIECBAgAABAgQIECBAgAABAgQIECgKCM6LGm4TIECAAAECBAgQIECAAAECBAgQIECAQOUFBOeVLwEABAgQIECAAAECBAgQIECAAAECBAgQIFAUEJwXNdwmQIAAAQIECBAgQIAAAQIECBAgQIAAgcoLCM4rXwIACBAgQIAAAQIECBAgQIAAAQIECBAgQKAoIDgvarhNgAABAgQIECBAgAABAgQIECBAgAABApUXEJxXvgQAECBAgAABAgQIECBAgAABAgQIECBAgEBRQHBe1HCbAAECBAgQIECAAAECBAgQIECAAAECBCovIDivfAkAIECAAAECBAgQIECAAAECBAgQIECAAIGigOC8qOE2AQIECBAgQIAAAQIECBAgQIAAAQIECFReQHBe+RIAQIAAAQIECBAgQIAAAQIECBAgQIAAAQJFAcF5UcNtAgQIECBAgAABAgQIECBAgAABAgQIEKi8gOC88iUAgAABAgQIECBAgAABAgQIECBAgAABAgSKAoLzoobbBAgQIECAAAECBAgQIECAAAECBAgQIFB5AcF55UsAAAECBAgQIECAAAECBAgQIECAAAECBAgUBQTnRQ23CRAgQIAAAQIECBAgQIAAAQIECBAgQKDyAoLzypcAAAIECBAgQIAAAQIECBAgQIAAAQIECBAoCgjOixpuEyBAgAABAgQIECBAgAABAgQIECBAgEDlBQTnlS8BAAQIECBAgAABAgQIECBAgAABAgQIECBQFBCcFzXcJkCAAAECBAgQIECAAAECBAgQIECAAIHKCwjOK18CAAgQIECAAAECBAgQIECAAAECBAgQIECgKCA4L2q4TYAAAQIECBAgQIAAAQIECBAgQIAAAQKVFxCcV74EABAgQIAAAQIECBAgQIAAAQIECBAgQIBAUUBwXtRwmwABAgQIECBAgAABAgQIECBAgAABAgQqLyA4r3wJACBAgAABAgQIECBAgAABAgQIECBAgACBooDgvKjhNgECBAgQIECAAAECBAgQIECAAAECBAhUXkBwXvkSAECAAAECBAgQIECAAAECBAgQIECAAAECRQHBeVHDbQIECBAgQIAAAQIECBAgQIAAAQIECBCovIDgvPIlAIAAAQIECBAgQIAAAQIECBAgQIAAAQIEigKC86KG2wQIECBAgAABAgQIECBAgAABAgQIECBQeQHBeeVLAAABAgQIECBAgAABAgQIECBAgAABAgQIFAUE50UNtwkQIECAAAECBAgQIECAAAECBAgQIECg8gKC88qXAAACBAgQIECAAAECBAgQIECAAAECBAgQKAoIzosabhMgQIAAAQIECBAgQIAAAQIECBAgQIBA5QUE55UvAQAECBAgQIAAAQIECBAgQIAAAQIECBAgUBQQnBc13CZAgAABAgQIECBAgAABAgQIECBAgACBygsIzitfAgAIECBAgAABAgQIECBAgAABAgQIECBAoCggOC9quE2AAAECBAgQIECAAAECBAgQIECAAAEClRcQnFe+BAAQIECAAAECBAgQIECAAAECBAgQIECAQFFAcF7UcJsAAQIECBAgQIAAAQIECBAgQIAAAQIEKi8gOK98CQAgQIAAAQIECBAgQIAAAQIECBAgQIAAgaKA4Lyo4TYBAgQIECBAgAABAgQIECBAgAABAgQIVF5AcF75EgBAgAABAgQIECBAgAABAgQIECBAgAABAkUBwXlRw20CBAgQIECAAAECBAgQIECAAAECBAgQqLyA4LzyJQCAAAECBAgQIECAAAECBAgQIECAAAECBIoCgvOihtsECBAgQIAAAQIECBAgQIAAAQIECBAgUHkBwXnlSwAAAQIECBAgQIAAAQIECBAgQIAAAQIECBQFBOdFDbcJECBAgAABAgQIECBAgAABAgQIECBAoPICgvPKlwAAAgQIECBAgAABAgQIECBAgAABAgQIECgKCM6LGm4TIECAAAECBAgQIECAAAECBAgQIECAQOUFBOeVLwEABAgQIECAAAECBAgQIECAAAECBAgQIFAUEJwXNdwmQIAAAQIECBAgQIAAAQIECBAgQIAAgcoLCM4rXwIACBAgQIAAAQIECBAgQIAAAQIECBAgQKAoIDgvarhNgAABAgQIECBAgAABAgQIECBAgAABApUXEJxXvgQAECBAgAABAgQIECBAgAABAgQIECBAgEBRQHBe1HCbAAECBAgQIECAAAECBAgQIECAAAECBCovIDivfAkAIECAAAECBAgQIECAAAECBAgQIECAAIGigOC8qOE2AQIECBAgQIAAAQIECBAgQIAAAQIECFReQHBe+RIAQIAAAQIECBAgQIAAAQIECBAgQIAAAQJFAcF5UcNtAgQIECBAgAABAgQIECBAgAABAgQIEKi8gOC88iUAgAABAgQIECBAgAABAgQIECBAgAABAgSKAoLzoobbBAgQIECAAAECBAgQIECAAAECBAgQIFB5AcF55UsAAAECBAgQIECAAAECBAgQIECAAAECBAgUBQTnRQ23CRAgQIAAAQIECBAgQIAAAQIECBAgQKDyAoLzypcAAAIECBAgQIAAAQIECBAgQIAAAQIECBAoCgjOixpuEyBAgAABAgQIECBAgAABAgQIECBAgEDlBQTnlS8BAAQIECBAgAABAgQIECBAgAABAgQIECBQFBCcFzXcJkCAAAECBAgQIECAAAECBAgQIECAAIHKCwjOK18CAAgQIECAAAECBAgQIECAAAECBAgQIECgKCA4L2q4TYAAAQIECBAgQIAAAQIECBAgQIAAAQKVFxCcV74EABAgQIAAAQIECBAgQIAAAQIECBAgQIBAUUBwXtRwmwABAgQIECBAgAABAgQIECBAgAABAgQqLyA4r3wJACBAgAABAgQIECBAgAABAgQIECBAgACBooDgvKjhNgECBAgQIECAAAECBAgQIECAAAECBAhUXkBwXvkSAECAAAECBAgQIECAAAECBAgQIECAAAECRQHBeVHDbQIECBAgQIAAAQIECBAgQIAAAQIECBCovIDgvPIlAIAAAQIECBAgQIAAAQIECBAgQIAAAQIEigKC86KG2wQIECBAgAABAgQIECBAgAABAgQIECBQeQHBeeVLAAABAgQIECBAgAABAgQIECBAgAABAgQIFAUE50UNtwkQIECAAAECBAgQIECAAAECBAgQIECg8gKC88qXAAACBAgQIECAAAECBAgQIECAAAECBAgQKAoIzosabhMgQIAAAQIECBAgQIAAAQIECBAgQIBA5QUE55UvAQAECBAgQIAAAQIECBAgQIAAAQIECBAgUBQQnBc13CZAgAABAgQIECBAgAABAgQIECBAgACBygsIzitfAgAIECBAgAABAgQIECBAgAABAgQIECBAoCggOC9quE2AAAECBAgQIECAAAECBAgQIECAAAEClRcQnFe+BAAQIECAAAECBAgQIECAAAECBAgQIECAQFFAcF7UcJsAAQIECBAgQIAAAQIECBAgQIAAAQIEKi8gOK98CQAgQIAAAQIECBAgQIAAAQIECBAgQIAAgaKA4Lyo4TYBAgQIECBAgAABAgQIECBAgAABAgQIVF5AcF75EgBAgAABAgQIECBAgAABAgQIECBAgAABAkUBwXlRw20CBAgQIECAAAECBAgQIECAAAECBAgQqLyA4LzyJQCAAAECBAgQIECAAAECBAgQIECAAAECBIoCgvOihtsECBAgQIAAAQIECBAgQIAAAQIECBAgUHkBwXnlSwAAAQIECBAgQIAAAQIECBAgQIAAAQIECBQFBOdFDbcJECBAgAABAgQIECBAgAABAgQIECBAoPICgvPKlwAAAgQIECBAgAABAgQIECBAgAABAgQIECgKCM6LGm4TIECAAAECBAgQIECAAAECBAgQIECAQOUFBOeVLwEABAgQIECAAAECBAgQIECAAAECBAgQIFAUEJwXNdwmQIAAAQIECBAgQIAAAQIECBAgQIAAgcoLCM4rXwIACBAgQIAAAQIECBAgQIAAAQIECBAgQKAoIDgvarhNgAABAgQIECBAgAABAgQIECBAgAABApUXEJxXvgQAECBAgAABAgQIECBAgAABAgQIECBAgEBRQHBe1HCbAAECBAgQIECAAAECBAgQIECAAAECBCovIDivfAkAIECAAAECBAgQIECAAAECBAgQIECAAIGigOC8qOE2AQIECBAgQIAAAQIECBAgQIAAAQIECFReQHBe+RIAQIAAAQIECBAgQIAAAQIECBAgQIAAAQJFAcF5UcNtAgQIECBAgAABAgQIECBAgAABAgQIEKi8gOC88iUAgAABAgQIECBAgAABAgQIECBAgAABAgSKAoLzoobbBAgQIECAAAECBAgQIECAAAECBAgQIFB5AcF55UsAAAECBAgQIECAAAECBAgQIECAAAECBAgUBQTnRQ23CRAgQIAAAQIECBAgQIAAAQIECBAgQKDyAoLzypcAAAIECBAgQIAAAQIECBAgQIAAAQIECBAoCgjOixpuEyBAgAABAgQIECBAgAABAgQIECBAgEDlBQTnlS8BAAQIECBAgAABAgQIECBAgAABAgQIECBQFBCcFzXcJkCAAAECBAgQIECAAAECBAgQIECAAIHKCwjOK18CAAgQIECAAAECBAgQIECAAAECBAgQIECgKCA4L2q4TYAAAQIECBAgQIAAAQIECBAgQIAAAQKVFxCcV74EABAgQIAAAQIECBAgQIAAAQIECBAgQIBAUUBwXtRwmwABAgQIECBAgAABAgQIECBAgAABAgQqLyA4r3wJACBAgAABAgQIECBAgAABAgQIECBAgACBooDgvKjhNgECBAgQIECAAAECBAgQIECAAAECBAhUXkBwXvkSAECAAAECBAgQIECAAAECBAgQIECAAAECRQHBeVHDbQIECBAgQIAAAQIECBAgQIAAAQIECBCovIDgvPIlAIAAAQIECBAgQIAAAQIECBAgQIAAAQIEigKC86KG2wQIECBAgAABAgQIECBAgAABAgQIECBQeQHBeeVLAAABAgQIECBAgAABAgQIECBAgAABAgQIFAUE50UNtwkQIECAAAECBAgQIECAAAECBAgQIECg8gKC88qXAAACBAgQIECAAAECBAgQIECAAAECBAgQKAoIzosabhMgQIAAAQIECBAgQIAAAQIECBAgQIBA5QUE55UvAQAECBAgQIAAAQIECBAgQIAAAQIECBAgUBQQnBc13CZAgAABAgQIECBAgAABAgQIECBAgACBygsIzitfAgAIECBAgAABAgQIECBAgAABAgQIECBAoCggOC9quE2AAAECBAgQIECAAAECBAgQIECAAAEClRcQnFe+BAAQIECAAAECBAgQIECAAAECBAgQIECAQFFAcF7UcJsAAQIECBAgQIAAAQIECBAgQIAAAQIEKi8gOK98CQAgQIAAAQIECBAgQIAAAQIECBAgQIAAgaKA4Lyo4TYBAgQIECBAgAABAgQIECBAgAABAgQIVF5AcF75EgBAgAABAgQIECBAgAABAgQIECBAgAABAkUBwXlRw20CBAgQIECAAAECBAgQIECAAAECBAgQqLyA4LzyJQCAAAECBAgQIECAAAECBAgQIECAAAECBIoCgvOihtsECBAgQIAAAQIECBAgQIAAAQIECBAgUHkBwXnlSwAAAQIECBAgQIAAAQIECBAgQIAAAQIECBQFBOdFDbcJECBAgAABAgQIECBAgAABAgQIECBAoPICgvPKlwAAAgQIECBAgAABAgQIECBAgAABAgQIECgKCM6LGm4TIECAAAECBAgQIECAAAECBAgQIECAQOUFBOeVLwEABAgQIECAAAECBAgQIECAAAECBAgQIFAUEJwXNdwmQIAAAQIECBAgQIAAAQIECBAgQIAAgcoLCM4rXwIACBAgQIAAAQIECBAgQIAAAQIECBAgQKAoIDgvarhNgAABAgQIECBAgAABAgQIECBAgAABApUXEJxXvgQAECBAgAABAgQIECBAgAABAgQIECBAgEBRQHBe1HCbAAECBAgQIECAAAECBAgQIECAAAECBCovIDivfAkAIECAAAECBAgQIECAAAECBAgQIECAAIGigOC8qOE2AQIECBAgQIAAAQIECBAgQIAAAQIECFReQHBe+RIAQIAAAQIECBAgQIAAAQIECBAgQIAAAQJFAcF5UcNtAgQIECBAgAABAgQIECBAgAABAgQIEKi8gOC88iUAgAABAgQIECBAgAABAgQIECBAgAABAgSKAoLzoobbBAgQIECAAAECBAgQIECAAAECBAgQIFB5AcF55UsAAAECNYGJJpqodjMp3k7T9IO/F29/8Ec3CBAgQIAAAQIECBAgQIAAAQIEBkpAcD5QzWljCBAoCkT4/bGPfSz/N9lkkyWTTz55/m/KKadMpppqqiR+TjHFFPnfJp100vxnPGaSSSb54HYE5W+88UbyP//zP/m/uP3uu+8mb731Vv73+P21117Lf3/zzTfzn/H/tfsX18dtAgQIECBAgAABAgQIECBAgACB/hAQnPdHO1lLAgSaEBg1alQeiM8444zJJz7xiWT22WdP5p133uSTn/xkMvPMMyfTTz99Mnr06Dwwj6A8AvJ4TPyshezxMhG2x+/xL4LzCMFrPc1rgfh7772XB+jx8+23387D85deeil54YUXkqeffjp57LHHkkceeSR58sknk7FjxyYvvvhiEsH6+++/38SWuAsBAgQIECBAgAABAgQIECBAgMBICgjOR1LfaxMgUFogQu1aj/BpppkmmWWWWZK55porWXTRRZNFFlkkmX/++ZOPf/zjeUAevckj/B6pJUL2119/PQ/NI0i///77k7vuuiu5++67kyeeeCIZN25cHrhH8B6Bei2cH6n19boECBAgQIAAAQIECBAgQIAAAQL/KyA4VwkECPS8QPQOn2GGGZI555wzWXjhhZOFFlooWWCBBfKe5LPOOmvek7zWg7yXNyaC8eihHsO8RGj+1FNPJQ8//HAeqN97773Jfffdl/dQf+WVV/RM7+WGtG4ECBAgQIAAAQIECBAgQIDAwAsIzge+iW0ggf4UiJ7iMdTKZz7zmWSNNdZIlltuuTw4j7HJY3iViSeeeER7k3dKtRamv/POO0kE5g888EBy1VVXJVdeeWVyxx13JM8//3ynXsrzECBAgAABAgQIECBAgAABAgQINCkgOG8Syt0IEOieQITk0WM8xiCP8ciXXXbZZJVVVkmWWWaZPDyPiT2rtESYHhOOxhjp119/fXLttdcmd955Z94b/dVXX83HVq+Sh20lQIAAAQIECBAgQIAAAQIECAy3gOB8uMW9HgECHwjEeOUzzTRTHpBHUB69y2OM8jFjxiQRlo/k+OQfrOQI34hx0t944418wtEYH/2GG27Ie6PHOOkRohsXfYQbyMsTIECAAAECBAgQIECAAAECAykgOB/IZrVRBHpbIALzubIJPTfbbLNkiy22yMctF5Q312YRlEdgfuONNyannHJKcuGFFyYvvfSSAL05PvciQIAAAQIECBAgQIAAAQIECDQlIDhvismdCBBoRyB6jk8xxRT5MCwrrLBCstZaayUrr7xyMvPMMyeTTDJJO09d6ce+/fbbyeOPP55ccsklyaWXXprceuutyTPPPJPEeOkWAgQIECBAgAABAgQIECBAgACB1gUE563beSQBAk0IRE/ymNhzk002SVZbbbW8p/nUU09tGJYm7Jq9y/vvv5+8+OKLyX333ZdcdNFFyTnnnJPfjr9bCBAgQIAAAQIECBAgQIAAAQIEygsIzsubeQQBAhMQiKFYpp122iR6l3/jG99IVl999WSaaaYRlk/ArRP/HWOiP/vss8lZZ52VnHzyyck999yTvPnmm4Zy6QSu5yBAgAABAgQIECBAgAABAgQqIyA4r0xT21AC3ReYeOKJk7nnnjsPyjfaaKPks5/9bDLddNN1/4W9wkcEIkB/+umnk8suuyw599xzk+uuuy4P1E0m+hEqfyBAgAABAgQIECBAgAABAgQIfERAcP4REn8gQKCsQPQwn2222ZItt9wyn+xzoYUWSqaaaio9zMtCduH+EaDHMC633HJLcsIJJyQXX3xx8sorr+iB3gVrT0mAAAECBAgQIECAAAECBAgMjoDgfHDa0pYQGHaBmNgzJvjccMMNk29+85vJ4osvnkSI3utL9LqOQLn4M8YDj9+HGhc8etTH9tX+xaSntdu9vs2xfjFp6BVXXJEce+yxydVXX528/PLLuUM/rLt1JECAAAECBAgQIECAAAECBAgMp4DgfDi1vRaBARGIwPjjH/94ssEGGyRf+tKXkmWWWSaJCT97bYlw/K233kpef/31PCR+4YUXknHjxiXxM0Lj6Hn96quvJm+88Ub+7913381/1hvOJELzKaecMhk1alTemz5ux7jto0ePzoejmWGGGZIZZ5wxiZ/x9+hxH/fttRMJsW3PP/98cuWVVyann356PpRLOFgIECBAgAABAgQIECBAgAABAgT+LSA4/7eFWwQINCEwxRRTJGuuuWay7777JksttVQeJkeQPtJLBMIxCWaE4o888khy7733JnfccUfy4IMP5mN9R2AeIfrbb7+dvPfee3lP62Kv89r61wvNa/9X2874Gf8iFI+fEapPOumk+b8I1KMXfpxYWHDBBZMll1wymW+++ZK55porD9Qnm2yynhjCJrb9pZdeSi699NLkpz/9aXLbbbflLrVt9ZMAAQIECBAgQIAAAQIECBAgUGUBwXmVW9+2EyghEIH5pz71qWT77bdPNttssxHtYR49w6On+HPPPZc8+eSTyT333JP885//TO66667k0UcfzcPzCNGHCsFLbHpbd41gPXrjzzTTTHmQvuiiiyaLLbZYHqZ/4hOfyHupR+/0CN9Hahk7dmxy3HHHJaeddlry8MMPC9BHqiG8LgECBAgQIECAAAECBAgQINAzAoLznmkKK0KgNwWiV/X888+fbLvttsmmm26a95yOsc2Hc4kAPIZTiYD39ttvzye6vPvuu/OQ99lnn82HXYkwPXpR9/oSAXn0Op9++unzCVWjN3oE6csuu2wSoXr0Vo/e68O9xImGOPlw8sknJ2eddVYSrhYCBAgQIECAAAECBAgQIECAQFUFBOdVbXnbTaAJgQjI11tvveTggw9OFlpooWEfrzvC8Mcffzwfh/vss89Obrzxxnx4kV7oSd4EX6m7RM/02WefPVl11VWTL37xi8kKK6yQh+jDPUZ6mP/1r39N9tlnnyROTgyidamGcWcCBAgQIECAAAECBAgQIECgkgKC80o2u40mMLRA9IqOsbm/9rWvJV/+8pfzyS+HfkRn/vf999/PJ++8//77k5tvvjm56qqr8t7lzzzzTBKBblWWySefPO/Zv/zyyyerrLJKPkTO3HPPnY+RPhxBeoTlMQTO//t//y8544wzkscee0yAXpXis50ECBAgQIAAAQIECBAgQIBALiA4VwgECHxIYPTo0cnmm2+e7Lrrrnkv8+EYNiQm7YzJPP/85z8nV155Zd7T+fnnn88n8qxyj+cIyWOy0dlmmy0/kbHOOuskq6++ejLnnHMOy5jor732WnLDDTckhx12WHLFFVck77zzzodqxS8ECBAgQIAAAQIECBAgQIAAgUEVEJwPasvaLgIlBSKknWeeeZL99tsv72U+atSoks9Q7u7Ru/zll1/Oe5SfeuqpySWXXJKPq13loHxCgnElQLRRDOUSJzcWXHDBPFjvdi/0F198MQ/PYwLRcePG6X0+oYby/wQIECBAgAABAgQIECBAgEDfCwjO+74JbQCB9gWmnXba5POf/3yy2267JZ/+9KeTbobmMcnnfffdl1x++eXJxRdfnA/J8tJLLwljSzRjBOXRC32llVZK1l577WTllVdOPvnJT3a13aL3ebTXEUcckdx000351QAlVtldCRAgQIAAAQIECBAgQIAAAQJ9JSA476vmsrIEOi8w88wzJ9/+9rfz8cxnmGGGJCap7MYSY5TfeeedyfHHH59ceuml+Rjab7/9tsC8DezaUC7R83zjjTdOttxyyzxA71YP9P/5n/9JHn744bz3+SmnnCI8b6PtPJQAAQIECBAgQIAAAQIECBDobQHBeW+3j7Uj0DWB6FW+6KKLJvvvv3+y7rrrJt0YyzyC1uhhfscddyS//e1vk7POOiuJscsNx9L5Zo1hXGIC0ZjQ9Qtf+EJ+e7LJJuvKiZC4QuDYY49NjjnmmGTs2LFJtLOFAAECBAgQIECAAAECBAgQIDBIAoLzQWpN20KgSYHJJ5882XTTTZN99tknWWyxxZJu9FCOoT2uueaa5Mwzz0z++te/5gFrjGtu6a5AhOXzzTdfsv766+dtvOSSS3ZlCJeYKDTa9dBDD83b2cmQ7rarZydAgAABAgQIECBAgAABAgSGV0BwPrzeXo3AiAtMMcUUyR577JHsueeeyUwzzdTxHsnR+/iee+5JfvaznyUXXHBBPpmkHsnD3+yTTDJJMscccyTbbLNNstNOOyWzzDJLV9r6gQceyE/AXHTRRYkTI8Pfzl6RAAECBAgQIECAAAECBAgQ6I6A4Lw7rp6VQM8JxNjl0RN53333Tb7yla90fGiW6IH84IMPJqeffnoS418/+eSThmTpgSqIIVyi1/kOO+yQbLDBBsmss86axN86ubz88svJwQcfnJx44on5UDydfG7PRYAAAQIECBAgQIAAAQIECBAYCQHB+Uioe00CwywQofkSSyyRHHTQQckaa6yRxFAtnVyefvrp5LTTTsv/3XXXXSaN7CRuh55rmmmmSZZffvnk61//ej6mffzeyeXFF19MTj311OQnP/lJ8swzz3TyqT0XAQIECBAgQIAAAQIECBAgQGDYBQTnw07uBQkMr0CMX77iiivmoeacc87Z0eE6YmiOm2++OfnOd76TXHvttcl77703vBvn1UoLTDXVVMlmm22W/OhHP0pmn332jtZDDMlz2WWXJTvuuGPyyCOPlF43DyBAgAABAgQIECBAgAABAgQI9IqA4LxXWsJ6EOiCwKhRo5KNN944+cEPfpAsssgiHXuFCEjvvffefEiWE044IR/HvGNP7om6LhAnU+aff/5kl112yUP0To5/HrURk4ZGzd10002J8e273pxegAABAgQIECBAgAABAgQIEOiCgOC8C6iekkAvCMQkoNtuu23y3e9+t6M9i19//fXknHPOSY466qjkjjvuSN56661e2Fzr0ILA6NGjk1VXXTXZa6+9khVWWCGJEy2dWOLKg9tvvz2/EuGKK64waWgnUD0HAQIECBAgQIAAAQIECBAgMKwCgvNh5fZiBIZHIIbj+MY3vpEPxzH11FN35EWj5/ATTzyR/OxnP0uOO+44gXlHVHvjSaLH+X777ZdPGjvttNN2bPiWhx9+ONl1112TSy+91DA+vdHU1oIAAQIECBAgQIAAAQIECBBoUkBw3iSUuxHoF4GY9HGnnXZKvv3tbydjxozpyGpHL/MYfuPnP/958ve//93knx1R7a0nid7n66+/frLbbrslSy+9dDLJJJO0vYJpmib33HNP8r3vfS+56KKLknfffbft5/QEBAgQIECAAAECBAgQIECAAIHhEBCcD4ey1yAwTALTTz99PjzGN7/5zSR6Dndieemll5Ijjjgi72X+9NNPJxGGWgZTYOKJJ04WXnjhfHifmEC0E0O3RL089dRTeY/23//+98k777wzmHi2igABAgQIECBAgAABAgQIEBgoAcH5QDWnjamyQPQ033ffffPxqqeccsq2KWKc6vvvvz854IADknPPPVfg2bZo/zzBdNNNlw+xsvPOOyezzjprR4ZuifA86vOMM84w5nn/lII1JUCAAAECBAgQIECAAAEClRUQnFe26W34IAlEaL777rsne+65ZzLDDDO0vWkRmp9//vnJYYcdltxwww1JjG9uqZbAZJNNlmy00UbJPvvskyyzzDJth+fR8zzGPI8hhC688ELDtlSrnGwtAQIECBAgQIAAAQIECBDoOwHBed81mRUm8GGBmPwzwsjozTvFFFN8+D9b+O3NN99MTjzxxHxi0eeee87QLC0YDspDYuiWBRZYIDnyyCOT1VdfPYnf21kiPB83blwSQwnFVQxxgsZCgAABAgQIECBAgAABAgQIEOhFAcF5L7aKdSLQpECMQb3DDjvkIfeMM87Y5KMa3y2G0zjqqKOSo48+OokA3dKcQEysue666yY33XRT8vjjjw/csDYf//jHkx/+8IfJ5ptv3pGx8++666786oiYcNaY+c3VmHsRIECAAAECBAgQIECAAAECwysgOB9eb69GoGMCMZTGVlttlRx44IFJBJsTTTRRy88d4eVDDz2U7L///sl5552XvPbaay0/VxUf+IlPfCK58sorkxdeeCE5++yz83G8n3jiiYEay3uWWWZJtt9++/zqhhgDvZ0lhv657bbb8nHUDQXUjqTHEiBAgAABAgQIECBAgAABAl0TyAK3NHty/xiogT6qgY997GPpxhtvnL766qtZ5t3ekoWY6R133JEuu+yyaRa+q4MW6iALztOst37eEOF5zz33pNtuu22aTdI6UJ7ZUC3pdtttl/7rX/9qr+j+79F33nlnuvjiiw+UkfdTnyfUgBpQA2pADagBNaAG1IAaUANqQA0MSA0IzgekIVsI++zE/dn2EW6vuuqqedjdbnqZjTGdXnXVVelKK62URhivJlqriWJwXmuTOKmRTYKZbrHFFmnWW3tgTkpkVzqkW2+9dfrggw+mcZKgneX9999PzznnnHTuuedWe47hakANqAE1oAbUgBpQA2pADagBNaAG1EBv1YDgvLWgTMDIbaRqYKGFFkqvu+66NELvdpZ33303Dy0XXXTRNHoSj9T2DMLr1gvOo20iWH7++efTbPiWdI011kgnn3zygXCO8HyttdbKT960G55nY+mnJ510Ujr99NMPhM0g1LNt8P6mBtSAGlADakANqAE1oAbUgBpQA2ogqwHBuR3BjtA/NTD77LOnl156ads9fSM0P//889NPfvKTwsoOnM1tFJwXT2y8/PLL6ZFHHpnOP//86SSTTDIQ7nHlQwy30m54HvV4yCGHpNNMM81AuDim9s8xVVtpKzWgBtSAGlADakANqAE1oAbUgBpoWAOCc8XRsDg6ECh67s7V1wwzzJAHr++8804xjy19Ox5/xhlnpAsuuODADB8y0nXWTHAeDRX2t956a7rPPvuk88wzT98PjxMnAFZfffX0H//4RxrDrrSzRM/8HXfcMR01apTw3LFXDagBNaAG1IAaUANqQA2oATWgBtSAGhj5GhCcdy7YHOnwzusPblvG+OO77LJL+sILL7STTabRs/f0009PZ5ttNqF5B9+Amg3Oa433xhtvpFdeeWW6/vrr931QHMP8LLXUUumNN97YVs/z6LX+wAMPpJ/97GdH/o2xg7XhuDy4x2Vtq23VgBpQA2pADagBNaAG1IAaUAMDXgOC8wFvYAFQ34dw0as3AtZnn322lru29DPGRD/vvPNMxNiFfaJscF5rwBi+5Ze//GW6xBJLpJNOOmlf1+pqq62W/vOf/2wrPA+XW265JV1kkUWc2OlCnfpA5/1eDagBNaAG1IAaUANqQA2oATWgBtRAiRoQnJfAEmT0dbDXjweGiSaaKF1mmWXyMLEWtrbyM4bRiLHRF1tssb4fHqQX27HV4DzaMq4CiOFb9thjj3TmmWfu230shlhZb7310vvvv7+t8Dx6np922mn5VRG92NbWyXumGlADakANqAE1oAbUgBpQA2pADaiBitSA4LwiDS3078tAcvTo0empp56ah6utBObxmAgir7nmmnwi0AjiHdw7v8+3E5zX2ujNN99M//znP6fLLbdc357ciGFbYszzxx57rNVyzR/36quvpnvvvbde547bjldqQA2oATWgBtSAGlADakANqAE1oAZGrgYE550P0QSTTDtRA5NNNlkeHr722mtthZAx9MWKK644cgeZChzg2w3Oaw0cJzkeeeSR9Nvf/nY6xxxz9GWAHuH517/+9fTpp5+ubVZLPyN8jxA+xvfvxP7kORyX1YAaUANqQA2oATWgBtSAGlADakANqIFSNSA4VzClCqYCIWgveERYGOOaP/PMMy2FjrUHPfHEE/nwGTGMRi9s16CuQ6eC81q7xeSh559/frrWWmulMcZ9v7lNM800efgfPcdbXeIkwm233ZaPd95v2299va+qATWgBtSAGlADakANqAE1oAbUgBoYgBoQnA9AIwqz+y5YnNDBc955502vv/76VjPH/HHjxo1LN9lkE8NdDMP+0engvNbw0Ybf+c530umnn77vajxO1hxyyCHp22+/Xducln7G5KkRxE9on/H/3svUgBpQA2pADagBNaAG1IAaUANqQA2ogY7WgOBcQXW0oIYhpBz09a0FjjHmdavLyy+/nO63337p5JNPLnAchprsVnAe7f/WW2+lZ511VrrSSiul/XblwGyzzZZP9BkToLa6xFUXW221lRNAw1DHg35stX0+76gBNaAG1IAaUANqQA2oATWgBtRAqRoQnCuYUgUjvOlqEB2Td6699tptDdESQ1yccMIJ6ZgxY7q6rurm38eObgbnEThH8Hzfffele+65ZzrDDDP0TbtGPS+++OLpTTfdlE9S20p4HvV86623pvPNN1/fbLd949/7BgsWakANqAE1oAbUgBpQA2pADagBNdCvNTBRBOdjx47N1t9CgMBIC8w999zJhRdemCy88MItrUoWMibXXXddsvnmmydZT92WnsODygtkwXly4403JtnxtPyDSzwiG/Yk+f3vf58ccMAByeOPP55Ee/fDstxyyyV/+MMfkjnnnLPl1f3d736X7Lzzzskrr7zS8nN4IAECBAgQIECAAAECBAgQIECgaQE9zp31yYpFT84eMJh22mnTn/70p+n777/fSsfcvEfvHXfckQ/poU2Ht6a73eO8WBDvvPNOes0116SbbrppOtVUU/XFvhuT3e6www7pv/71r+KmlLr90ksvpdtss01fTpZqfxze/ZE3bzWgBtSAGlADakANqAE1oAbUgBroSA0IzhVSRwqpB4Lnft+OtdZaK33iiSdKhYnFO7/66qvp17/+9b4bB7vf2y3WfziD82jzGL4kxv7ef//9+2bizNGjR6dHHHFEW0O2XHvttWl2VUZfnCwYhLq2DT4fqAE1oAbUgBpQA2pADagBNaAG1ECla0Bwbgeo9A7QI4H/NNNMk5577rkth4oxBvZxxx2XRq917Tn8+/RwB+e1EyYxcWg2dEu6yCKL9EVP7Ai92xnvPBuqJs2GqXFyqEeOW441w3+sYc5cDagBNaAG1IAaUANqQA2oATUwjDUgOB9GbGGHULdODYwaNSrdbbfd0jfeeKOWh5b6GUO7XHLJJWk2fjTfOr7D8YYyUsF5FEq0fzauffrFL36x5wPlmCz0s5/9bPrAAw+UqvHinZ9++ul0tdVWS+O5hqNtvYb3SDWgBtSAGlADakANqAE1oAbUgBpQAxWtAcF5RRt+hAJGB5qP1tunPvWp9OGHHy5mg6VuP/bYY3mQyPajtsNlMpLBeRRLDN3y7LPPpnvvvXfPj3segfcee+yRxtBCrS4XXHBBOtNMMwnOHcfVgBpQA2pADagBNaAG1IAaUANqQA2oge7VgOB85MK24Qr1vE7vtnFM7nj44YenMdRKK0s87kc/+lE65ZRTdu8g4QA8QduRDs5rtfP666+nRx11VDrPPPP0dI/seN85++yzWx6a6IUXXsgnCp144okn2DaOf717/NM22kYNqAE1oAbUgBpQA2pADagBNaAGerkGJooAY+zYsdk6WggQGG6BFVZYIfntb3+bZEFn6ZfOwtLkmmuuSbbZZpvk8ccfL/14D+icQBacJzfeeGOSHU9LPWk2RnmSDdWTZAFwqccNdec333wzufrqq5Ns4tDk5ptvTrKhXIa6+4j8X9brPInaP+OMM5LZZ5+99DpE7V9xxRXJlltumWQ97Us/3gMIECBAgAABAgQIECBAgAABAhMU0OPcmZ2sSPTaHAGDSSedNP3Nb37Tcq/bGOt5mWWW0XYj0Hbj7zOt9jjPguP06KOPbmvYklpv8/F/3n///enaa6+d9mqv7I997GP52P5Z0D/+qjf1+zvvvJPuuOOO6r8H6n/8/cHv3lPVgBpQA2pADagBNaAG1IAaUANqYCBqQHCukAeikPssPIrQcKONNkpfeumlpkLC8e8UE4kecMABaTyP9hv5fbjV4PyYY47JxyTfaqut0uuvvz59++23x2/qln+Pcc9j7PwIl0ePHt2TdTLjjDPmQ7a89957LW3nfffdly644II9uW32y5HfL7WBNlADakANqAE1oAbUgBpQA2pADaiBtmpAcK6A2iqgPguse2VbZ5111vTiiy9uKSyMB91www3pAgssIDDskfprJziPmpxkkkny9owg/ZVXXmm5Luo9MMYD/8lPfpKOGTOm5+olJgpdd91102eeeabeqk/wb9kwNOlBBx2UTj755D23bb1yrLEe3uPVgBpQA2pADagBNaAG1IAaUANqQA20WAOC8xbheiSwU/j9137RS3yLLbZIX3zxxQkGg/XuEENbbLfddj07BEcVa7Ld4LxmFpPF7rTTTukTTzyRRijcqSVq5le/+lU600wz9dykoTGx7S9/+cuWt/fuu+9Ol1pqKcG59yQ1oAbUgBpQA2pADagBNaAG1IAaUANqoKM1YHLQLLGyEBhOgWmnnTY58cQTky9+8YtJFqKXeuls+I3kzDPPTL75zW8m2TAvpR7rzt0TyILzliYHPfbYY5Odd975QyuW9T5PPvOZzyT77rtvsuaaayZZsPyh/2/1l2xM8OSiiy5KfvSjHyW33357ErXUK0s23Epy1llnJYsttljpVcqGt0kOPvjgfLtKP9gDCBAg0KMCk002WZKdTE2mmWaaZOqpp87fC2Ji5VjiuBcTQWdXKCWvvfZafrsXJ4JuRBvbkV0p9MH2xXZOMcUUSXH7Xn/99eTVV1/9YPt66T2r0Xb5++AJxOf0+BwW+2Dsi1GnUbuxxD4X+2HUafyLmn333XcHD8EWESBAgACBigsIziteADZ/+AWyCRuT3/3ud0k2vnPpF3/ssceSL3zhC8ltt91W+rEe0D2BTgbnsZYRHmRXAyW77LJLsscee+Rf1Dqx9hE8XHfddcnee++d3HTTTZ14yo48R3wx/drXvpb8/Oc/z7+cln3SrNd5stpqqyXPPvts2YdW9v4Ryi266KJJNklxywaPP/54Mnbs2IaPj3aN14hQrFNLnDB88MEHk2xc/JaeMsKPbJir0tudXf2RxPE3G1aopddt9UFxIm2++eZLpptuulafYsjHxQm1t956Kw98Xn755SSbPyMPfmJ7h3OZZZZZkk9+8pOlTyYP5zo+//zzySOPPJKHZd143TjuRzAXJxJXWWWVJLuSJplrrrnyto+wLvbZWrAc9V9rt2yi8OTee+9NsnkykptvvjmJ33sxvIvjQdTx4osvnqy00krJEksskcwxxxxJNgdHHkTGsai2fbH+sX1xUiCOMQ888MAH2/fUU091rQ1q7RpB6UILLVT6OFF7/FA/4304ti1OfsSJj9jvYj+MEHa497uFF1449x9qfdv5v9rxJbYzjt2xzVG7w72dZbchjrvZkIrJpz/96bxW4xgcn8li/4z9cNSoUflTRlvGNsZxs3Z8iH0w9sWo2QjVe31by9q4PwECBAgQqKSAoVr6b6iPrFA7etmB5xs+z5ik8cILL8w+R5dfsg/n6WGHHZZmXy61f4/tA50aqmX8fTH7gpZuvfXW6V133ZW2OoHm+JWWfdFLb7311jQLZnqqlrLgLP3LX/6SxvqVXbKQJf3Od76TjxU/vqHf6x/f5pxzzjQLvvO6itoq+y8LftJvf/vbQx6LsrAvvfHGG0s/91Drkp34SbOwbcjXHarNl19++Za2O+tJmH7rW99q+XWHWqeh/i8LGtNzzz23o4ZF35hoOoYNy8LI9J577snn3jj88MPTbbfdNs1Co3xuhCwk6up2Z2Fp+o1vfCOf36G4br12+9RTT02zEy8dt4ghupZccsk0u8oojfrOeq62dBwMr+zkTnrSSSel66+/fjrbbLON+DEx2jY+96ywwgr5fBTZSf80hg5r9Tgf23fKKaekG2+8cRrfXyaeeOKOt0fsj4ssskhu2Y0ajM9y0cZZ0Jo++uij6T/+8Y/0jDPOSL///e+nG2ywQT7hdXZl4rBM/n7JJZd07dgSdnF8iXlWnnzyyfSOO+5I//SnP6X7779/mnUAybczC6KHZTuHOsbW/i/mmomayq4GTWNfj/fH+GxRdolh9mKbL7vssjS7ojDfzvgsV3sdP+t/JuHCRQ2oATWgBnq6BgTnCrSnC7THAtJ2rOIL5EYbbZRmPajKfg7P73///fenyy23XM+NUd2OyaA8tlvBefjEl7kIueOESytf4uoVW4QW9913Xz7Wfq98oYsA5Ctf+UrL+0fWCznNegj6ctrkMTPr3ZuHGfXqo5m/RS3us88+Q3pHcH7LLbc083RN3ycC3gjhWj12xGMjxCm7ZD0l0913373l1211fSM4P//888uublv3j+NDBF4R6sXJrO9973vpsssum3YrQI/3xmz4sfw121rxLj84u1Kso8F5HNsjMM+utMlPWkSg2okl2i+Cuz//+c/5MTWC61brr53HRb2sscYaeZDfaghZzyO2b9y4cflJnjjhEicIoobaWdfxH5tdKdPScaLe+jb7twias17ZecD8m9/8Jv3qV7+axgnOrKd+R7etuK1//etfm129jt0vguWsl32+nXESJN734zNUp9uwuJ1D3Y7XnXnmmfOTd1dccUW+70SNdWKJ42i8B2ZD5OUBejfbcqht9H++66sBNaAG1IAaaLMGBOdtAjYZUihUzvHlNXoVtbLEF40f//jHPdVDWE3/u6a7GZyHc+2L3RFHHNFysDx+3cUXw+i9FxPV9sqXuTFjxqSXX375+Kva1O+xj0SQG2GU2vx3bTay6NfgPALs7bffvuU2Fpw3tTt9cKc4TkSgmw3/kR511FHpPPPM0/HjRRzfqhacRy/z2OaYCDoC024s0XZxoj56+UYQPJzBZDYUXd7DPBs+q+WJnydkEtsXwWSc3IkJoju5fSMRnBe3N97PYtuiN/qXv/zlNOql0bG8nb+PRHBe3M5aG/7973/PP4vEZOHtbE/Zx8Znn2zIoLxjQlxV1K0lTjRHgL7uuut27SqJstvu/hP+nMSIkRpQA2pADXxQA4JzxfBBMTgJ0NUP7NmYnnlQ2coH87iEPgILbdWb+2u3g/Nau8dlzTE8RvS6jS+cnViyMZvzIDKeu/Y6I/Uzgo/11lsv7/HVyrZFb7HZZ599xLdjpPzKvG6/BudRFydlQ1G0erJHcN7KnvW/j4ljTgR5W221VUeDvCoF57Gt0UM6hl2LIXKGY4l2u+GGG9K11lqra1cN1I49sX0RYmeTPXfthMD4ZrF9cUVe9Fzu1PvYSAfnxW2MAP33v/99PnRSp4emGengvLidMfzXySefnC699NItH99rddjMz2yCz3TzzTfPr77r1Oep4vbUux0nIPfcc890hhlm8DnFd041oAbUgBpQA/1UA4Lz3gzimvnQ5z7903bxZfLAAw9Mo7dk2SW+TERP2laDInXS/ToZruA82jJ6nsUYnNkEVB3ryRfheTYJaRpDa4x0vcQ6nHbaaS1tW4wZG2OnjvQ29MPr93NwHicSZ5ppppbaWXBe9h3ow/ePgCmOF4ceemiaTZ7XUhuMv39UJTiP7cwmGUxPP/30UsPShHn0+o+xwSNEjX9xu8zQXdGDOcLlmDOjW8NzxWeUZZZZJr366qvz9f1w5TT+LdYtPhsVty0+95TtiV8LJSMQHb/Gyv7eS8F5yEVbx3wRMdxfJ4dM6qXgPLYz6jx6Zm+66aZdvcIyDGMeh4ceeqhUJ4SoyajNYq3GOpcJ3uOE2UEHHZTGMFxl69L9u/95njFjNaAG1IAaqFsDgnOFUbcw+unsTx+sa1y2HBMjtbLERI56m/f2fjqcwXltf2q9SxwAAEAASURBVF144YXTK6+8stQXtqHqL8ZW3WWXXboWqtTWu5mfa6+9dhqX+Jdd4strjEPc6V55zaxzv92nn4PzCC1WXHHFlkKHQQvOI8jpxL8IL8uEPxHkHXPMMR3p4Tuh4DzWrRPb2O5ztDs5aARlMaZzrMeElrjPc889l16RXUXz3//93+nXv/71NI6LMWZ4/IshH3bddde8DSJQjTGjw2lCS4TL8dhOn4iPNoye5nffffeEViGvswgfYwz9s88+O58Uc8stt0zXXHPNfNv+4z/+I5/8c6+99sp7IP/zn//Mg8pm6jMcdtxxx7aH7BoqOI/1aLeW4vFl97mAjUlFo5d0p97jhgrOO7GNtecou63xeWS77bbr6EmC2nt02MUQdWE5oSXaOoY7uvPOO9MTTzwxn+ciTl7U9sPYJ7fZZps8CL/44ovzk4qxzRNaYliYvffeu2PtWNs2P3v7u4L20T5qQA2ogf6tgYkiOB87dmzWhhYCBLohkH1BTbIvvUk2PmyS9YQq9RJZOJFkX5qTbHzzJPuiWeqx7jx8AllwnmThRZIdT0u96LHHHpvsvPPOpR5Tu3PUVRaeJ9nEfcmGG26YTD311LX/avln9kUyOeSQQ5JYr6xXVMvP0+4DZ5llluT4449P1l9//dJPlQVD+eOyISVKP7ZKD8iC8+S6665LonZbWbJwIK+9bMiJhg/Prh5Irr322iS79L7hfVr5jyyUSPbbb78k6/WcZMFGqafIgvPkzDPPLL3dWa/CZN99902OPPLIUq/X7p2zsDXJAtu6+0LWSzdfp7vuuqvll8l6HydZ7/3cY+65504WXHDBJOsVnWST5SXZfAFDPm8WUubHi3hvy05mDHnfof4zC12TLOxMDj/88CRqZvwlG74hyU6IJdHuI7n861//SrKrHZIsBCy9GvHen00um3z/+98f8lgdpvFekk0GnWQ9t5OsR2ySBXcN6zzaKJs/JX8vyALnZJ111kkWX3zxJBsruu46huHf/va3ZIcddkiykLvufVr5YxxHYt/IroZK4r2p3hJu2cS8SXYyIMkmLk2y4WOS7ARp/tmmUdtOOumkSdbxIMmC7CQbaib/t8giiyRZj+F6L5H/LbvyKMlOAifZ2O5JfIZqZYnXy4LQuseJOG5mkz22VAexLuET79exj2WTfybzzjtvkk1sncw111zJtNNOm8T+MNQS+/u3vvWt3HGo+zXzf1lwnmQh8EfuGu2y//77Jw888MBH/q/MH2rHl2wItWT++ef/4PiSDVWSZAH2kE8VtZ9dbZmcd955LVuP/wJhu/LKKye//OUv831m/P+v/R7H+2zC8eSiiy5KsjH0kyw4T7IwP4m/11viebOrAfP2zCZzT7Ih55JseMZ832zUnlGn8fkv6jTeTy0ECBAgQIBADwvocd6/Zz2ysmqpx53HDa9b9DaPS09bWR5//PF02WWX7eikV9q/8+0/Ej3Oox2zL2Rp1FcMA9Sp8XLHjRuX/td//deI9jyPHmHR2yx6tZZdomdbFsB19TLvQdiH+rnHedTEBRdckMaEy2XbYpB6nEfP+9iesgbj3z+OI7HPxcR88ZkwevMffPDBTQ1jEMeLGFs6Hj/+8zb7e7z+UJODZmFzX78HZkFpPrxW9CBvtETP1iykzOebiDZoxTMLmfOhYMIrhq1qtMRxNSYq79RQETEhcxYkp0NNrhhDscS451lomV+lECbN1kftfjEES1xpFe932UmMRpuX/z0+c0UP+Npjy/4cqsd5TLba7iTUUfNhEEOGZGF53m4xPMkf//jH/OqBoTYuejRfdtllaXaCueXtq3k06nEenz1jrPHa/dr5GdsZXjHM3BxzzJHGFQW/+MUvotPWkFe5xD4Rwwstt9xyHVmP2IYYWzyuchiqV/gLL7yQf4aIGoih46Ktymx/7LvRNl/60pfyOSHiM0mj5bbbbkuXXHLJUs9fZl3ct/Of95kyVQNqQA1UtAYE5xVteKH7sH1QzXqADfkhvdEH6viwfdxxx41ogOmNobnjw0gF57X2iQnRvvOd76RxeXN82Wx3iUuYY1z9CNJqrzHcP+O9qdXhjeLLdtaLb8TWfbitWnm9fg/O77vvvjTrpVm6jQXnzR3TIvyJ8arPP//8fDztoY4pEf4ssMACpduiVreDHpzHvpb1Um5IGEF2/H8EaK0EyjXH2s8IKbOrddKsx2zD94N4zW984xsdCYBXX331IYP6eD854ogj0jFjxrRcI7Vti59hFKFkjE/daIlxp7Me8C1vX7eD8+L2FG/HyYGvfvWr6b333jvk0Dvx+TDmGWh3vPrhCM6L21e7HTW66qqrpldddVU+Znijdoy/Zz2+OzKfQhxnYsijOOHYaImhfrIrQzr22WeJJZZIL7/88oZtGXUaQzG12441Vz+be3/jxEkNqAE1oAZK14DgXNGULhqhe9Nf/qK3Snx5a2WJCdiit7n26f19dKSD86iRqLXo+RlfuDsRnse4nhGeR2+4kajBCEci2IlJ8Mou0fMxJv7qRAg1Ets+HK/Z78F59ArMhigq3RtQcN788TSCppiE9YADDhiyh28EUd/97ndbDikHOTiPY1DMHTHUeMqXXHJJ3js6HDq178frZsNFpDE+eKMlG7Kl7ROMMUFsXP3RaIn9NK5gyoYm6di2hVH0rt9ggw3SOIHW6P0uxnP/3Oc+V/oYEc8/UsF5vHaEyssvv3zuOtSE8tHrPhsOpKXtq9XZSAXn8fpR79kQLvnVLUNdjRH7zp577tn2eOcxV1BMLN1oyYYRSr/2ta91dJL02A+zoZPScG7U8zxOAOl13vz7Uq12/WSmBtSAGlADw1oDgnMFN6wFl31YrtLrxQf1mLir7BJfBGOSw7iMt0pe/bqtvRCch13US/Q0jDChE0tM0Lnbbru1NGxAJ9py+umnb6nXeXxBPemkkzoe1nRim3rlOfo9OI9AKa6yiJCpjKngvPx7cJw8++EPf9gw+In3q5tvvjkf5qVMW9TuO8jBeRzDoldto3D3qaeeykPSbpzki/eDmHSzUQ/bCCTj5GStHcr+jHbbbLPN0gjH6y2xzb/+9a/z4cTKPncz94+rIuLkWQz5UW+J18/GUm9pAtuRDM5j28M2Pj/GhJONAtf4e/Tkb+fKsJEMzmttHENuxcm5RkOz1Y4vMcxL7TFlf8b7RJzcazRES5xsz+aLKf1+0sx6RFtm47vnE4zWq9Noxxi6ppXhmZp5ffcp/57HjJkaUANqQA18pAYE54riI0VRsXC7m9ufTZSVxhiwZZf4IhrjXXZz3Tx35/b9XgnOo03jy1dcAh3DJzT6klimHqN+49Lx6NE+EjXzk5/8pOEX6qG2I5tALR83diTWuR9es9+D8whTTj/99Hzc3DLegvPWjnsxl8I555zT8JgSV4ZEb80Iicq0R9w3HjOIY5zHdkWw3Ki3+SuvvJKbdSM0r7VBDP2RTd6axpAQ4y+xD2WTH7Z8bI/A9je/+U3DYLfV4ZRq697Mzxji4qCDDmo43EfU5dprr126Lkc6OK/tFzEMzmOPPTZ+033w++23397SkFU1214IzmNdYuzxONldr05jY+PvMYRKK8eXeP5sEtY0m2z3A7fxb4RD3Kfm0o2fcZIqhtOrt8TVETF+fzde13O29p7HjZsaUANqQA18qAYE5wriQwWRfcD0e2cMIsA85phjGgYN9T481/527bXXpnPNNZe26JN67KXgPPbfCGJiQq34MtiJ8Dx69EUoNhLjcMZEYtErs+wSQ83E0DWOZ/WPZ/0enEc9xMmh2WabrVQbC87r10Mz+0mEiXfffXfDXTGON60M7TSowXnMPRHDmERAPf4SvUxjssy4TzP27dxn7rnnzq98q7cecWI0hvto5fkj6Hv44YfH37T89zhZsNVWWw3LcFmxHo3mw4htjuHyyvbK7oXgPNokTnz84Ac/aBgoh/M222zTUvvF8/dKcB7rEp+jItyuV6dRVNHGMTRQK7Uaw/rEFXT1lvisEB1Vut3jO4aliSsg6i1xPNhrr7260uO9FS+Paf19kh07NaAG1MCA1oDgfEAbNvsQaqcdWYOZZ5655SEzopftSISUaqa1mum14DzaMcKo+PJ/ww031PueVvpv0evt85///LAfV2aZZZY0xgAuu8SX7z/84Q/2owbvBYMQnMeVORGElzluCc5bO8aFcZyQO/DAA9NG4y5HAPWpT32qVHvUjlWD2OM8Jldt1MM0Auvojd5qD9oyNR/DVMQwFG+99dZHDqO1YLnskEfx+t/61rfqBrrxnHHMLhtWl9mm4n1j3f/zP/+zYc/3eA8s2xGhV4Lz2M74nhY9y+stYR09tVsNfXspOI9t3XrrrRvuM9HrPCaFLbZ9s7d//OMf171yrVarnR6Dv956xfEz5l5pNCTNeeed17Vhjeqtj7+1/l7Ijp0aUANqoII1IDivYKNnH07t7N01iC/DW2yxRcOAod4XoNrfInyICa20UXfbqJO+vRic17ZvgQUWSOMLWb3QpFZzzf68//770+gB3krIUlufsj/jtWJisOiRVXaJnvIRgJR9zSrcfxCC87iaIiawLdNegvP2jqsrrrjikENHRABeNgyO+w9acB4hWcwP0WiJq8raGbO5TM3HfeMKpEZDfsRxPU5QlnnO6CnfKHSNzzC77rprqecr89r17hvBeKO5PaKncdmTvr0UnMf+se+++zZ8D4/tHjNmTEvejdrw8ccfT5deeumWnrNe+zT7t9gnLrvsska7TX6SoGzIHRPJNnrOGNs85gFodv3avV/0mI9h5Oot0Y4mCW3v/and9vF4/mpADagBNdCwBgTniqNhcQjYW/4wHeNB//73v6/32XiCf4tLVVu53F07jty+3MvBedTFggsumJ599tkNL4GeYFH+3x2id9att96arrzyyqXDsXbqc5FFFmk4AdxQ6x5hewQ4EWK18/qD+NhBCM6j7WOM5hjOoNk2Epy3d5yMsc7/8pe/NNztYniyMu0R7TaIwflUU02VnnLKKQ2dDjnkkGE9ATnddNPl+0q9FYqevGWHa1l88cXT559/vt7TpQ8++GD66U9/uul9stl9d6j7RY/ro48+uu4J1ti+/fbbr9R7Vi8F57Hdyy67bBphdr0lwt84MTKUT6P/67XgfEInyv/xj3+k8847b6ltjbHLn3zyyXp06T333NP1sc2L9vFZ5L//+7/rfhZ78cUX04033rjUthWf2+323tv48VMDakANqIEha0BwrkCGLBDheUsfYuebb770kUceqftBfag/RtC33XbblfqCp/1Gfh/u9eA8aiR65EUvx1Z6bhdrNsLzq666ali/bMaX6d/97nd1v2wW163e7fPPP9+JqDrH8UEJzuOqghjDudnjoOC8veNlBJQ//OEP6+1q+d8uvvji0sMNDGJwHu8J119/fV2nuFJijTXWaLpmm63toe4XgV1cndFo2XnnnZten2ivGL883gvqLTGOc0z2ONT6dOP/1ltvvfTll1+ut0r5VVfR87jZ1+214DyuCLjiiivqblu0Q0w82ey2Fe/Xa8F5rNtCCy2U/utf/6q7rc8880x+1VtxGyZ0OyaHbTS81BlnnDFsQwrV1jMmfK03YXCc4Ikhh2r387O99yp+/NSAGlADaqCjNSA4V1AdLag6AU3Vnj++VMbYpfU+GNf9JlD4Y0y0NZyXb1etbbq1vf0QnMe2R1j6xz/+seEl34VSHPJmBD9/+tOf0nnmmWfYTvJsuOGGaQwBUHaJ3o+LLbaYL6PjHZsHJTiPQCR66cVxt5n9W3De3meecF533XUbjtN70003lTqREW0WzzloQ7XEWO8PPfRQ3cPVo48+mk+E2Ey9dvI+caVQo2Poz3/+86bng4gTmdFjvtESPWrjPp1c92aeK4Ylu/fee+uuVgxHM9NMMzW9Tr0WnMd48b/+9a8bnqyICVCbPQYWLXsxOI8rVuKEd73ljTfeyI8VZbb1gAMOqNthIILqOAk43LUaPeAbDSt0/PHHN12jxXZ0u733NX781IAaUANqYII1IDhXJBMskvECF/cfumZiUs/4UtloAqB6Xwbib9Fr6LTTTmt5kiftMnS7dNOnX4LzMIjeXDHmeaPego3qc/y/R32ffPLJaYzZ2U3b2nPPPvvsDSdIG3/dir/H5HzDNQlfbV374eegBOfR1ocddljabG9SwXn7x8k4hsS40fWWBx54oPQ4vYMYnK+zzjrpc889V4+o9PBCnTqezDbbbGm0T70lTqjGcC7NvFaMMR09dRstMcFjM8/T6ftEMN5oIunoiV5m/OheC87jSo/vfve7aZy0rrecddZZpYdICv9eDM5jvWJek3rbGlfMxfG+2eB81KhR6ZlnnlmPLD+JFJN1DvdQbqNHj25Yp9EezW5bp/cfz9f+eyNDhmpADaiBAa4BwfkAN67Ae8S+vMWlymWDyegJtuOOO47IOjvIt3cc6KfgPNo6hraIgKHsyZ3xv31G76/ozdVsaNlOnUUvtOhxV3aomdjGgw8+eNh7lbWzrcPx2EEKzi+99NKmJ8cTnLd3rIvanH766dO77757/MNB/nuMJVx2vOxBDM6/+tWvNuzdfeihh45IOBa9lmMonXpLzK0S72PNHHti2JC4f70ljrfDPb55bZ1jXPkTTjih7mev+Dy2/vrrN7V98Xy9FpzHPvLlL385jV7S9ZYYxiUC2ZpFsz97NTiPY8grr7xSb1PTP/zhD013MAmTG264oe7zxBj9a6655rDvi/FZJuq03meZmDi07BwRzba1+7X/3seQoRpQA2qgwjUgOK9w4wvWS3/JaOZgGZNmNbpEu+6n9//7YwzTsvzyy3dlnZpZb/dp/VjQb8F5tPX888+fXnDBBW2H59HzdIcddmj6Mv9W6yx6hcXrNBpqoNG+FYFJnMiaZppp7FuFY/4gBecxDEOzvUkF560f52r7bgSwjQK3GJs4xhSu3beZn4MYnO+99951x1WO4HOnnXYq5dOMYTP3iWPocccdVzdYvv3229OYm6WZ54khuuL+9ZZ4Pygz50Azr9fsfeIEbpwkrddTOdZ19913b2r74vV6LTiPdYqQ96233qrHnsakmWPGjGl6+2qmjfbjmIh06aWXLv18tedt92fUUKPJUK+55po0epI38xpxkic+W9dbnnjiiXSZZZZp6nmaea1m7xPr3uiq1Njm4bqKr9n1db/23zMZMlQDakANDEANCM4HoBELYYidcuTbc8stt0xff/31ep/Th/xb9ABu5YuPNh/5Nu/H4DzCqiWWWCL929/+NmRdNvOf48aNy4dDicvJu1mP0ZPxsccea2aVPnSf+OIcJwq6uW799tyDFJy/+OKL6aabbtpU+wrO2z9eRkAZw4rVW6IX5wYbbNBUW9T2mUEMzn/yk5/UPSkZJ/6+8IUvlPKpOXXi54EHHlg3WI65IJZaaqmm1is6B8TJqnpL/H3GGWds6nk6sT3F54gTA3HCotGVVDH2evH+Q93uxeB8ueWWazj5afRUjpB4qG2q93+9GpzH5LK33nprvRJL77nnnjSuLqi3PeP/LU7yNBpWKsYZX3DBBZt6nvGft53f43PSvvvuW/fEWhw/mz2B1c46eGz774MMGaoBNaAGKlYDgvOKNbiQvasfkuOL21FHHVX3w/6E/hg9UIZ7kiIH/M7s//0YnEfbR2AVYfQtt9xS97LhCdVs8f/jS263e2/FGLaXX3558WWbuh0nspoNVquyTwxScB5BWUzyFvU8ofYTnLd/zIv3qRNPPLHuvhcnMTbZZJMJtkOxnQYxOP/FL35RN6COORc+97nPlfIpWrV7e4899qg73EeckGz2irfPfOYzDU9gxvtAXJHQ7nq28vjaVUkxYXC9JebkaPZ5ezE4jx7gL7zwQr1Ny8PkZofaKRr0anAeV4g1eq+PyXWbPUmwyCKLNDS74447RuTqiKjTXXfdNX3zzTc/0pZxYq3Zq6eK7eh2++9rDBmqATWgBtTAkDUgOFcgQxaIoL3pL1rhGB/2b7zxxo98GJ7QH+LS4jLjb2qz3tpv+zU4jzqK0GqVVVbJL/UuOy5/sa4jvIxJR+eYY45S+0yZWo7ALi7FL7uecf+jjz7aianC8XyQgvOow3PPPbep9hWct3/sjGNGoxPEMQljXHVVZr8exOA8TizUG8M4gs8Insv4dPK+2223Xd3hPsaOHdt0oB/jT8f96y0x1vZIjdEcdbTVVlvV3b5Y1xgbu9nOCb0YnEdP/0a9p2PS13nnnbd0XfVqcB4nX84///x6JZbXXrx/NbNfxMn8OCbVW26++eamx/Vv5rWavU/tBE+9K1MjTO92B4Rm19P92n+vZMhQDagBNTBANSA4H6DGLIQidtKRadf4shU9ysouMa5hK72FtPPItPP47v0cnMe2xKXDceLmmWeeKVu6H7p/nACKIRymm266pr7Uju/YzO+rr756w2DkQysz3i+33XZbS5OnNbNO/XifQQvOY6iJmWeeeYJ1JzjvzDHzpz/96Xh72P/+Kjj/X99eDc6/8pWv1D1+lgnOo8d8o/eKCGInm2yyCe6H3ThmRnC++eab1+3JG9V5zjnnNL1uvRicx7AiMfluvSWC81aG+OjV4HyKKaZIzzzzzHqbmp88WGCBBZqqsThJ1WiS0ejkMttsszX1PJ2s1wjOt99++7rztQjOO/P+1Mn28lzaRA2oATWgBvIaEJwrBAeDztXA1ltvXffy7Lqf/gt/PPvss5v+Qqe9OtdenbLs9+A8HGLc4q9+9asNexIWynXIm2+88UY+zmx88e2Ub/F54hLtRuPrDrViEegttthiXVmn4vr1y+1BC87jEve11lprgu0rOO/M8VNwPrTjoAfnMQlsvWWkg/PNNttMcF6iE02vBudx8uXUU0+tV2J555Tofd/Me20MRdcoOI8JVbt5hVyj9ROcD33sbOTm79zUgBpQA2pgRGtAcK4AR7QAS3zA7/X1jEuAjzjiiLof9If64zvvvJN+61vfamp83l43qOr6DUJwHm0X4fkuu+ySPvfcc0OV7AT/LybjjAkCowdgp2si9rMzzjhjgusw/h1iuJYtttii4+vT6e0brucbtOA82vfwww/Pr54YylBw3pnPPILzoR0F50P7DLWPtvp/8X4jOC/nPujBeZwsbzQu/L333jsik4NGcB6dFJ5++ul8GJk4qV/7Fyekmp2kt9X9xOPK7SO8eKkBNaAG1EBeA4JzheBg0JkaiOEpLrnkkvHzugn+/vzzzzc9KZe26kxbddpxUILzcIlx+iMUi2FX2lnuuuuulsZcbaZtdt9995bW76CDDkrjS2szrzHo9+n14DzGh643RvRQNRlj1k4//fRDtq/gvDPHUMH50I6C86F9unF8FZzPN+Sxr575oAfnc889d8Nx4WPYm2WXXba0WT3Hsn8bM2ZM/toxlEzxX6zPVFNNNSLrVHYb3H/4j3HMmasBNaAGRrAGBOcjiD9Ava3txEk6//zzpxEWll1uvfXW1H7Y3/vhIAXnsS/HuJ+/+c1v0rfffrtsOX9w/+gB/Mc//jGdffbZO/4l8D/+4z/ScePGffBazd6InupxYsDxKkl7PTiPMXvvvvvuZps2v1/MLzGhidUE55051grOh3YUnA/t041jsOBccD5+XUVAfd9999V9H4me6BtuuGFXrowbfz38PvzHA+bM1YAaUANqoKM1ILBTUB0tqAqfDFhllVUaTphV91N79sdauKiHyb/3wxjbMnrvzzrrrOmcc86ZX0q75JJLpvEvxrWMwC+OW9GzdPLJJ++JLz2DFpzHMSH8zz///JZ6dtfqPcad/sEPftDx8ftjkrSyoWqs0/XXX9+VIL8fj6G9Hpz/7W9/y4fkiWNks0vcd4cddhjyqgLB+b+Pte3UreB8aEfB+dA+7dReo8cKzgXn49fGlFNOmV566aV130LeeuutdK+99prg8F7jP6ffh3/fZs5cDagBNaAGRrwGBOeKcMSLcADC9vjC9uUvf7nhJER1P7Vnf3z33XfTQw45JB01alRlesGGVYylPe200+YBePQQ3WSTTdLvfve76SmnnJJ/yYlJm2Kc7BjvMXoFRU/S+Pfiiy/ml90+9thj6W233ZZedtllec/o73//++lcc801YoaDGJzHcSEuIQ7ndpannnoqn7Sxk0OkzDTTTOnFF19cerViUtE4AeOY1/s9zq+88sr8mFB2yKBf/vKX6VAT0wrOO/OZR3A+tKPgfGifbhyDBeeC8/HrKmriyCOPzDupjP+BIU60xn4aHTDGf5zfh3//Zc5cDagBNaAGeroGBOcKtKcLtE9C9YknnjgPecoObfH6669PsIfkILRPhKajR4/Oe4x/6UtfSmOs6T/96U/p7bffnofjb775Zt6zuUzv0tqXoHhM9Bxab731RuzLz6AG5zER50YbbZRG+N3qEu0T4fsSSyzRsasD4gqNX/3qV6XHwI4TMWuvvfaI1Ukv7cu93uM8Toqtu+66+QmzMrV3xRVX5FdLNLIWnHfmM4/gfGhHwfnQPo32z3b+LjgXnNerny9+8YsNh52Lz6DdGE6u3nr42/AfE5gzVwNqQA2ogY7VgOBcMXWsmPok5O7G9kYP6mOOOaZ0kBcTg66zzjoDG+TFCYUI6L75zW+m5513Xt6L/JVXXsl72pcJwyZ033feeSddf/31R8xxUIPz2Ffiaojtt9++9NUUxTaL8Py3v/1tGj3FO7H/RaAfVyhEu5dZYuiYbbfdtiPr0IntGMnn6IfgPIbkiatPyiwPPfTQkFcVCM4785lHcD60o+B8aJ9uHPuqHpzPM888pd/bBn1y0KizOeaYI42JQOst0XklOnN0ox495/AfA5gzVwNqQA2oga7VgOBccXWtuCoUpEcP2AiGyy6PPPJI3gt7kNogTiJED54NNtggvww2vrDEkDTdXATn3T2OxTihhx9+ePrGG2+03Iwx1M6uu+465PjTze4HEZBsueWWpdcn6iTGXG/2dQb5fv0QnM8888zpUUcdVfcy+0aFGCfmtthii4ZtLDjvzLHiZz/7Wd0miKG1oodnmX0n9uc4udro+BJDccV9yjznSN+3V4PzOMEc8wfccsstH/oXQ19NaGLdmunnPve5/EqxegUQQWzMU1K773D+HPTgfKGFFmp49VfM+RGTepf1rkJwHifazz333IbvI3F1U8yZU9bO/TvzXsKRoxpQA2pADfRFDQjOFWpfFGqPh/AzzjhjeuONN9b7Hjnk3+LL66Dsg/HlJL7Y7bvvvmkMlxABSitDrwwJ1uA/BefdP45Fb7YLL7yw5TaNWrjvvvvSpZdeuiNfUFdeeeW8xhqURN0/v//+++nxxx/fdyFcN47R/RCcx3H185//fMNAtV4jx5johx56aMMaE5y3f6yIK4mOPfbYevzpc889V/rqH8F5+23S7DEiTvJHD9zx/8XnkGbHehac/ymNzzvNmnfqfksttVQaVynWW/75z3+ms8wyS+l1qkJwHv577LFHw/eRGCpwm222MUloj3/P6tR+5HmG7/2GNWs1oAYGqgYGJbQbqEbx4aX0h/+Rbv8IoWLCyrLLBRdckE499dR9t73je0cP8x/96Efpo48+Wnr4jLJm9e4vOO/+G3OEWzFOeQyF0eoS4fk111yTRk/i8Wuo7O8R5D/xxBOlV+Wiiy6q1GS8jVz7JTgfM2ZMPsRTmYa+/PLLG4aAgvP2jxUxfNNJJ51Ut0mefvrpdPXVVy+1fwvO22+TRvt5N/4uOB+Z4DxOOkeHhHrL3//+93SGGWYotd9FbVQlOF922WXTBx54oB5d/rerr746nXPOOUv7dWP/8pz9dTzUXtpLDagBNVCRGhCcV6ShhfFd/UAcH8rHjRvX8EN5o/+IXnsj0XOpEwf46HU499xz58NvxDjE0dNzpBbB+fAcxyLg2mSTTRqOF9pM+0ev7wMOOCCNno/t1GH0Rr755pubeckP3SdqdZpppmnrtdtZ7155bL8E5zGxcNlhsMaOHZtf/VLPWnDe/rEihuKIyZ3rLXEC+TOf+Uyp/Utw3n6b1Kv1bv1NcD4ywflKK62Uxpjc9ZY4IdxKJ4yqBOfxnv/rX/+64RVzMf9JXC0Zn2u7td943v46zmkv7aUG1IAaUAMfqgHBuYL4UEEI2Fv60Lzuuuumb731Vr3vM0P+ba+99urImM/D3YZTTDFFPo5wfOlq9EVuyA3v8H8KzofvOBaB94EHHthSvdea/eGHH07XXHPNlva1Wq1HeBdXbJRdHn/88ZYuaa+97qD87JfgPLz/67/+q9Q8CXE8+NrXvlZ3SB7BefvHigihoodrveXOO+9seNKi0b4jOG+/TRrZduPvgvPhD85jH9lwww3Tt99+u95ul5588sktdcKoSnAefnHiYagOLnE13SqrrFL3faMb+5Hn7K/jnvbSXmpADaiBiteA4LziBSAobyu8qx1At99++4Y9Wep+y8n+GMNWbLzxxh15/dp6dPtn9P6MITJOOeWUNMaF7JVFcD68x7EYSzW+cLczhn08vp2e3/FF+Be/+EXpEowvzosttlhf7Xfd2K/7KTj/whe+0HCIgkYF8Nvf/rbuJIWC8/aPFfG5MU5A1VuuvPLKdNZZZy21fwnO22+TbhwjGj2n4Hz4g/P47BUT6NabaD3eh7/3ve+V2udqbVuV4Dy2N3qTH3nkkWlc9dZouffee9OFF15YeO67YUv7U22/8rO/3tO0l/ZSA2qgqRoQnCuUpgrFh6ghP0RFD9yyIWJcGrriiisO+by91DYRcm655Zbp3/72tyG/eDT6QtLNvwvOh/c4FkFXjLd6xx13lK77Wh3EFRrRk3jKKadsaR+IdYgrNsouccJntdVWa+k1e2l/bHdd+ik4X3zxxdO77767VFPfc8896Sc+8YmPtLPgvP1jRRjG+1e9JU5YlB2GSXDefpu0ezwo83jB+fAH53GF1WGHHVb3s1d8/llnnXU+cqxrpk2rFJyHx3zzzZcP8dbo83r8/Ywzzkjj/bEZP/fpr2OX9tJeakANqAE10HINCM4VT8vFI0z/4IP1iSeeWDpAfPbZZ0tf0j4SbRWhRkz+ecQRR6Sxzo2+cNQLUYbrb4Lz4T+ORQ+4rbbaKq+JVts5JhL8/Oc/3/JwRTHeetl6jPtvuummH+y7I7FP9cJr9lNwPtNMM5UelueVV15JV1111Y+0s+C8vWNF7Pc777xzw/3uP//zP0vvz4Lz9tpkuI8ngvPhD86nn3769Jxzzqn7VhuTZM8xxxwfOdY1UxdVC85jTqEYxqvRJKsB/MYbb6S/+tWv0jBvxtB9+uv4pb20lxpQA2pADbRUA4JzhdNS4QjNP/hAHV/6Y2KmsssjjzySzjzzzB88Ty+2Q4QkCy20UD45X71LhMtuc7fuLzgfmeNYXIVwzDHH1O0F10xbR4gdYcCYMWNa2g9iPNJW5hbYbbfdKn8pdj8F56NGjUoPOuigZkrqg/vEMWH33Xf/SIgrOG/vWBETEJ5++ukfOBdvxPjLsU+WfS8TnLfXJmW9272/4Hz4g/P4HBbDiNRb4j00jpGttGvVgvMwmnbaadPjjz9+yM8t8Xk3OsTEsHRxfGrF1mP667imvbSXGlADakANDFkDgnMFMmSBCMgn+IE5Jsq87rrr6n2fGfJvt9xySzp69OgJPv9ItU9cGhyTnsYkcO+9996Q29LN/4zxKIv/6vUwFpyPzHEsvlAussgiadRyvXZppi5eeumldKeddvpIwNlM3S+xxBLpiy++2MzLfOg+Bx98cEuv18w69ct9+ik4jzrbaKONGk6M96HG/b9f4pjx61//+iPDhgjO2ztWxLA5MQxOveWmm25KZ5xxxtLvaYLz9tpkuI85gvPhD8632267usMjRe/ouAKk1RqoYnAeVnPPPXf6l7/8pe6Y8bVjW5yUj4A95vVp1dfj+uvYpr20lxpQA2pADTSsAcG54mhYHELzpj4sTzfddOntt99e+6zd9M/4wtLq+M7dbrPoab711lun0Su+1UC0aYj/u2MEXS+//HL66KOPptdff336pz/9Kf/SEuN6HnrooR/8i8mdYhzd+NITY2w/88wz6auvvpqut956TbVXN+xiLOWnnnqq7CbnvbW7sT7D+ZxRK9HLdOzYsaW3v/aAhx9+OF1yySVLt1+EvzHcS9nlhBNOEJxndk8++WRZug/uHz3y9tlnnyHbLE4qxkmVVpbLLrvsQyFstHXZGrv66qvT2Wab7UPrKDhv/TNPBNwxr0CEdeMvcfJyjz32aGm/Epy33ibDeayvvZbgfHiD8/iMecUVV9T9LBYnseIEcq1tyv6sanAex5w4CRhz9gz1GTeuornkkkvSBRdcUM9z3wlb3s/K7pfu31/vidpLe6mBitSA4LwiDe0DT9c+8MRwKw899ND4OcIEf//jH/+YTjrppF1br1YP4hHmx9jV7YRqE9r4CMljDOIIya+88sr06KOPTqNH1fLLL5+Pp/7/2bsSqKum931+P1r/aFKarNQKlYZP0oQGUuaKREhIg0SDVKJpadVqME8lc6NC+RAtZJWSVoNKhGaVSDOpiBb7f57T7/bde78z7X3POfeec5691l333jOf933ed+/97He/G1Np7WQDshakHKIb0aG58sorCxFkqu+vcl6ciXPIC/oYMWKEKaHmhAXsR8f1jTfeEGXKlJGyBxyPwR3ZgqntJ510ktS9VHCRy+eEKeIcckQqAtmUWD/++KNo1KhRip5JnKu3eapUqSJWrFhham5r1qwRwJQK5kmcq+tERd6ZnkPiPDjiHH4PM7KwqHV6QTsKqdKQPklVp3ElziEvtFuuuuoqsWnTJlvyHO0TzLzEmhmqKXFU9cPzwuUbqS/qixggBoiBCGOAxHmElUuyXLkzIeP0VEnTSZMmKUXnyTyb7LHIWf3AAw+Iffv2pffRPPmP6J1vv/3WWHjpzjvvFA0aNDDyW4MkB3ki+7y5crwqBtDpzZV3yPQ5zjnnHIEoYdUCzHXq1EnKJoDX7777TvqWIAvi3gEOG3EOfCJnOcgitwWR0d26dUuxMRLnam0eDFJOnjxZILI8vUDODz/8sMDCeyp+hMS5mk5UZO3FOSTOgyHOYReYzbVx48Z0kzP+796929ifSdspzsQ5bAHtAJDnGPizq1uQrhBt1x49emQ0UOGF/fEa4fKX1Bf1RQwQA8RARDBA4jwiiiRJrtRh98KRIVeiSp7lF198MWvPbPXeILP37t1r2knLZCPIFkQqotNRuXJlo7OSSWfP6vmztZ3E+fHoLaTLwUwClYKorgULFqSk53DSJyLtVFKBYHp2rqZJcnpnr/aHkThv2LChOHDggGt4AVOvvPJKymAMiXP5Nk+xYsXEqFGjLNe6gA1i4EwVmyTO5XWiKmsvziNxHgxxjhken376qSmhCyIXNpnpAHDciXPYA/xP8+bNxdq1ax3rFgwSPvnkk6Js2bLK/s4LG+Q1wuUzqS/qixggBoiBCGCAxHkElEjSPKsNWCwchAUOZQoiW5C3O1ecKBYCvfnmm8WOHTtkXsP2WLzjnj17xNy5c4186UhpEyWyPFl3GAxA9JdsiVLEOeQBHI0cOdJ0Wrkb2aBTOmDAANdkANL1LFq0yM2lU47BtGuQgck6jNvvMBLnICtWrlyZokunP1h/oly5cid0TeLcfZsHqQzOPPNMMXbsWNMBCwxMoM7Awq2ZpD5yIs7hJ+vXrx/Yp1atWrapwtz4itdff92U8MTAT+PGjU/g0c21cu0YEuf+Eueo10DkgtQ2W5gdgQizZ8+WGmS2whCJ8+P+EP4LuMb6OmazapLrGaTNgfwxkGuXUtBK5tzuvg6irCgrYoAYIAaIgZzBAIlzgjFnwBjSAQAsMCQbZYvO0JgxY3Ki84wOw3XXXWfkG0/uHGTyGx0PREp16NBBgDAHARNlnCHaUhYDkG/UiHPoGIsxojMOUk2lgIhDrns3gywg6q06/nb3/uqrr0SpUqUijUknewsjcQ59Y2FXuyn16Xo/fPiwaNas2Qldkzh31+bBOhM33nij4ccxoGVWsCBy586dMyaPnIjz/fv3i82bNwf2wWBv+qKyTvaUvp/EuTucpcstk//AEdocZvnAgV+sbQEf4uYederUsVznBQuXq6Ylsrs32knwy0OHDhUbNmywrEMxWHzBBRe4eg+7+2GfVf2J9SEwWOV0vl/7oadp06aZuR0jUAXtbq/vDfljzRyst3L06FHTeyc2og2/fv16YxYlfKXXz8LrBe8/KHPKnBggBogBYsAWAyTOCRBbgISUzA7yndC5OHToUKI97eo7l4hzdBSsFnxz9TJJB4EsxaKiDz74oDjttNNi05kAcS6LAYgtisQ5Op+YvQCyS7VMmTJFuOmMqhLn69ati/1U6zAS58AW8pxbEblWeBs0aNCJwTsS56ltHpCN+EC2iJ4EYdy+fXvx0UcfCQw6WBXYd+/evTMmzVFXOxHnVs/g13bMUsAsokzaESTOU3GWiSzdnhsm4jxhcwhcQNqw2rVrG4Q5Fqo0izIH1jFg+M033xikOc53Kxe740icF8ZphQoVxMSJEx3Jc+gE7b6nn35alC5d2tVgv50uuK+wLigTyoQYIAaIAWIgZzBA4pxgzBkwhpSkDzNxDvufNWuWOHbsGPoAGRV0IPLz843prpnm3QwbJkmcp/pRDJogt7RMZHAy+Hbu3CmQL90JByTOU+XuJK/k/WEkzkEWXXHFFWLXrl3JcHH8/f77759Y0C1KxDmiIjt27Chq1qwp9UEqEtRbSAfRpk0b0b17dyPF0ltvvSUwqISBCasZI7gn0hkgshcpJZIxpfobeu3Zs6f0gIij4hUPIHFu71finqoFZHNeXp6UzcFGESWN9B6tWrUy7AeDgM8++6wR9f3LL7/YtsOQ4ufVV18VNWrU8JSgJXFujnXMSOvVq5cRVe7UjsEMS8jx6quvdj2jQdVX8jxzfVEulAsxQAwQA8SA7xggcU6Q+Q6ykBLibuUSVuIcCysiUuavv/5SpBcKTkMu88GDBwtE6iBy0a3sonIcifNUPwoiDDMZMJVZpSDiDgM6RYsWtcUSifNUucvYUxiJc7wf1pRYs2aNFKyAw+rVqxtYihJxDnJ727Zt4vvvv5f6QB44DwNU+/btE0eOHLEl7SBs3AvkHRbGA/HupZ8nca5uxzI279WxcSfOkZYNA0yydod0Q0iBgoE/rIuDlDJOpCzqwtWrV4suXbr4MkuKxLm17WEGDgZqlyxZYjmQmKiIoEfot0+fPrFfeNwrP8PrWGOTsqFsiAFigBjIAgZInGdB6BEnkuNmyGEkzjE9+NZbbzVd8C3REXDzjc7C9u3bxR133BHrSBsS54X9KMgwdPZVcr8De5jBcMstt9gSdCTOC8vdrf8NK3GORV0RGS1TkFbk2muvjRxxLiMDlWPh3xF9vmXLFiPatUGDBq4X7nWLQxxH4lzdjmXk7NWxcSfOVWzJ7TkYoEIE86+//moshDxw4EAjfRJsxCv9JV+HxLm97UHulSpVEpMmTTIGO6xm4iT0ixk5mBmANqGXg4vJOuNve51RPpQPMUAMEAPEgC8YIHFOYPkCrBgNDtStW1eaHMx2jvNq1aqJL774wjGKJtEZMPvGO+Aa6ET7sVBWmHBJ4tzcj2IGAhZSc4qqM8MXtiGfa9WqVS0JA1XiHKkY4pSD38yWwkqcg8jo16+flO8CmTFgwACBAcMoRZxb2Y0X2w8ePCiQ4ua+++4TqOO8SstihkUn4hyzojCQFtRn2bJlBllm9qxutzHHuXmd4FZ+KscBR0EsDuqFfZldA6QsBqnGjx8vbrjhBgOD8FkqsnB7DolzdzhFDnNEk2/cuNGx7sHAx6effipatGgR+7axWxzyOHc4pJwoJ2KAGCAGsogBEudZFH6MyOUoGzlSB2DarUwBkTh27FhfO0RWMkf6ixdffNGIapJ55vRjFy9eLBCBiM6q1b3isp3EubkfRcRV27ZtlRcKhZ1goVmrgRlg+bPPPkuHpuP/5cuXn8h5HReMpr9nWIlzvEejRo1sF65MBwBwNHnyZIP8JXGeLh3z/0gjgYEr5GBu0qSJQKR/Ooa8+u9EnE+dOtWYMYAcwkF8mjVr5pgmyundSZyb1wlOcstkfxSIc8yOAZkNkhaDxlZ1XyZySj6XxLl7nCJ1C9q88+bNc0xthToHszG7du2asS9J1hd/u9cXZUVZEQPEADFADHiKARLnBJSngIrhYMBZZ51lTKs1px/MtyKyCFFFQcse0UuIyML0e9WCSHMsDlevXj2S5v/DO4lzaz8Kwu3ll18WwI1KWbFihbEgmpmt4NorV66UvuzSpUt9JQLNnjXXtoWZOEf0n2yec+AE7R0S59LmIhB9/sEHH4j27dv7so6FE3E+bNiw0NU1JM6t6wS/fGHYifNky0wQr0899ZQxUHjqqaf60l4kcS6PU6RuwfpAWPPBKXUL1pB46KGHRMmSJX3Rn1+2xOvK44Iyo8yIAWKAGIg4BkicR1zBMSSyg3ZaZ555prHIWnKnx81vdKzR0QvyeRHBtGDBAjePZ3oMOnNIz3LBBRcE/uxBykn2XiTO7f1ozZo1jYXUTEHlsBELFw4aNMg0X2iJEiXE2rVrHa5QePf8+fN9ydUsi5tsHh9m4hwDgM8//7wjaZGs+b1794qmTZtGjjjHgNSxY8ekPjgHvlymgCACUZSfn28smOdlJCyJc3v/mU0/YXbvuOc4hy3I2hyOV7E7pP3YtGmTGDdunLHAsddtRhLnarZXqlQp0alTJ2MA1ykoAPnqX3jhBVG5cmW2m9knDbTPZ+a/uU3N5ik3yo0YIAb+A+J8586dOhZYKAFKQEUCFStW1PQIVk0npaVOnzVrlnb77bdresdI6jzVg/UOl6bnq9UeffRRTY/UVbrMDz/8oHXv3l1buHChppMuSteI4kk6ca7pEbBa8eLFpV5v4sSJhk6kTgrhwcBe3759NT09kabnSpZ+Az2vqHb55ZdrO3bsSDlXz1OurV69WtNnfaRsd/ozd+5c7frrr9d08tDp0Mju14lzbcmSJZoePaf0jjpZoA0ZMkR7/PHHLc+HrvWBNk1fQNnyGKsd+gCfdvPNN2t66gLTQ/TFjbXXXntN0yMxTfenb4Su9bQ/mp6mR3v77bel3xt+Wh/A0fTUJemX9vU/MD5t2jStTZs2he6DZ4JN6cRaoX1WG/T0SVqZMmWMjz7oq1WpUsWou/T1CAz/BVu1K/D7OoFu3FdP+aXpA1t2h7vah3vec889mh5da+ofhg8fro0ePTpUdY4+MK517txZg7yTi06iaXq6GU2fSZO8OVS/deLcsKHy5csXem59UFJr3bq1puelL7TP7w3A0U033aTpqX00PY1XodvpOfs1fcFpV89Wp04d7ZNPPjH1E/rsFU0fuJOqP/T1OAybg53B5nQS1ai39NkzGvY5FfjbL7/8UuvVq5fR1vCq/aUT51qrVq0K3R51bbt27Yz6tdDOADZAJvoim0YbOf12+gwYrXnz5po+aJ6+K9D/wFteXp725JNPGu0TO9+pD7ZoM2fO1Pr376/t2bMn0OfkzSgBSoASoAQoAUrAAwkw4pyjJzqMOAKegQywyCBywcoWvVMm/Jp+a6ZTneAXyO3sNLXU6j0w5VQnAmIfqWsmW0acO/sQyOjzzz+3gpftdkTHjho1SiDHaLL8ETWtD/zanmu2c9KkSaYR7MnXjvrvMEecQzfnnXee0AfyzNRruW3OnDnisssuEz/99JPlMVY7sEDl/fffn4K/IDCC+gVpUswKUm4h9Yzqc+hEj5H3HXXDhRdeKHr06GHkgscsDsz0sCtYqHPMmDFCJ+GV7594bjxHz549LVOIMVWLs39NyDKI77hHnGPB60xmXGDGDFJ3IM0fcvbrA0NCH8wVOlltm9IMbTdEn+uEdqG6UFXvjDjPzLbgu/SBECOiHG1ku/Y1/PVLL70kzjjjDEaeZ9DnUsU6z8sM65Qf5UcMEAOxxwCJcxpB7I0gwwYcyG/kTJYtyN0cVN5DdNSQZxHkj0o5fPiwAHmhR5BmTJJEEW8kzp39aJEiRYQeVeq4qJYVPrdu3SoaNmyYgj892stIH2F1jtV2PUo69h3XsBPnZcuWNRZpsyMq0vWPQZbbbruNxLlFnYfFfJH+SI+2NRYnRB2FFBNWBSkIRo4cmfEAMIlzZ/+ZS/UmifPMiPN0XaJu1KP3RYsWLYzFeH/++WdbAva7774TV155ZUpdmH5Nt/9JnHtjexjg7N27t4Du7AoWXZ4+fbpAike3OuJx3uiIcqQciQFigBggBjLCAIlzAigjAFl0wON0TZANiB6XLVu2bBHlypULpPEMYtepQW/1/Ij2RYQViKo46VXmXUmcu/OjiE7FrAeVAgIPUef6FO4TOGzWrJlAR1S2PPDAAyTO9Wh9lcjrhKyhDz31yQldmNkLBtpWrVqVOEXqG3noTz/9dMvr66kYBBbOc8ovm3xT+DJESau8dxQjzs10ltgGMhuL4CE3LwZOrcrRo0eNSPVMInBJnLvznwndZPubxLm3xHmyPtGeBIG+bNkyy3UIMFiIetSL/huJc+9sDz7whhtuMGYO2A3oIm89FhfFIGWy7vnbO11QlpQlMUAMEAPEgOcY8KLh5flDkYxlYypkGEAEiWzZtWuXqFatmu+6RjTTgAEDLDthTs+9fft20bJly9intrDzcyTO3VXOIMiuvfZapShx4BQkLBYaTegCnVS7DqoZtnE8oo4T14jrd9gjzkEwdenSxTK9h5nusQ3pgvQcs1a7LbfHjThP2IW+HoYRfY56wKqsW7dONGrUSNmmSJy7858JnWT7m8S5f8Q5dAvfhnoO7UqrlEkYMNTXeMh41iKJc29tD7M7MRtAz0dv2zZBWhek/kpPP5dt2+b9vcUD5Ul5EgPEADEQIQyQOI+QMkNGNkfJkSCKUZbA+/3338VFF12kTDa4lR+mhOoL7VlxHrbbEVU6ePBgNu4dbIvEuXs/iohxfbFDqUjhBEgR3Tp06FAjWhxkW79+/RK7XH8jQl1faNR3u3Nrn9k6LuzEOeTWuHFjsXv3bte6x4HQv0yUeuLicSXOIWekI0MOcqvZHYigfOaZZ5TrCRLn7v1ntvxF8n1JnPtLnEPWsAn0z1BXWqVLQhsSg8c4Nlk/Mr9JnHtve4g8x1oa33//vW2/AHXXddddl5H+ZHTNY73XNWVKmRIDxAAxECMMkDiPkbIdyD8avjoW7r33XtsGcoJ8Sf4GedO2bVvlDo9bfbVp00bs3bs3+daufmMgYMmSJbbpEtw+Q9SPI3EuZzutW7cWv/zyiyscph+0YcMGIz8oyIJnn302fbfjf+Rlrlevnu92l+uYjwJxjvRRiOwLosSZOAeWQZ4///zzAiS5WcFCrbVr11ayKxLncv4z276FxLn/xHlCx+eff75BwJrZHNpoM2bMEKVLl1ayO9yDxLk/tgef1rRpU4F89HZBNUjJE8TM0wSe+O2PvilXypUYIAaIgRhggMR5DJRMwly5U+HWCSJqBMSKbOnTp4+vKVAwbXTixIlKEZZIZ9CxY0ffZedWxrl8HIlzOT+K3NXo8KsUDDgNGTJEIIXEnDlzpC+B/Nas9zQRBeIckX0TJkyQxoDKCXEnzuF/YTeLFy82JYIQFTtu3DihkuucxLmc/8x2XUjiPDjiHPaElFSHDh0ydVvbtm0zCFpVTJA498/24NeQmm79+vWmusNGzOIZPXp0ytotqrrkef7pkrKlbIkBYoAYIAY0EggEAR1B5hhAyhVEssoWLBCkQjS41dkZZ5whNm/eLPtYxvEffPCBqFChAolzFwNPJM7lbAgdyiuuuEI6P3UCyKtXrzZyKqtEG3/60h0fAAAKiklEQVT99dcZ54V1a3+5fFwUiHPIF6kKrKKgE3jx4pvE+fH0EZhdZbVYKKLOkRpMFvckzuX8p6x8vT6exHlwxDl0V7x4cTF37lzLAavhw4crp/sgce6v7SGH+T333GMbWIPBj7p160r7Ta/tmtfzFwuUL+VLDBADxEDIMUDiPOQKdEHq0Uj91zGI0x07dkjzM/n5+cYUeL90hEUQVUglnHPXXXf5Gg3v1ztn47okzuVtDKkfZs6cqbRoLaLvxo4dKxA9LlvmzZvH6C693ogKcY73+PHHH2VhIH08ifPjNo50LEg/YFb++ecfI/0YiHAZP0ziXN5/ysg3+VgsOonBj969e6d8unbtKipVquRKbyTOgyXOoT/M/rOKOl+0aJExAytZz25/kzj33/ZKlCghxo8fb0meI5ULFnotWrSoK/tzq1se579uKWPKmBggBoiBGGGAxHmMlE2S3bdGafny5cWaNWvMuATbbStWrPAtqhvEJIh5lbJ27VrXnWhWGJogca7mR5s3by527twpDVF0NLdv3265WKHVBXHe5MmTlaPzooT1qBDnWGxWJWWPFUastpM4P27jSJE0depUKzEZaQdkZ1GROFfznyr+6M477zRm+mCQI/mDQUgQ4m6uSeI8eOK8Ro0aAu0ys7Jv3z5Rq1YtV7pL1y+J82BsD7M3Fy5caDprADo9cOCAuOSSS5R0mK5T/g9Gp5Qz5UwMEAPEQMwwQOI8Zgonee5LwxQRJR9//LFZn8Z2G6a2q3Z4nJw1OloqkZjIId2/f39Gm0vYColzNT+KwZ1p06YpRZ3bGpbFTuRhHjVqlC8+wMkec21/VIhzyBU571Vm1ljAxHQzifPjNg6S++677zaVETa+88470qmQSJyr+U8VnwLi/OjRo4X0hwFMEucFeqhTp47ljKZ33w2eOC9VqpSYPXu2KfGKAZAOHToo1Wskzgt0rmJPMudg1oBdSkcsdn7KKaco6VHmOXhscDqnrClrYoAYIAYihAES5xFSpgTRRyP2Vu+Ienz11VelCUAswNmyZUvPG8ogItCRsspFW6jXnLRh06ZNomrVqp4/U5QxR+JczZ6A03bt2glEzAVRjhw5YpB+Ucai23eLEnF+zTXX+I4hEucFNt64cWPLtBHLli0TVapUkao/SJwXyNat/aoeR+L8/1xhM9eIc+TKRnoykOTpBTOpxowZozSTisR5cLZXsWJF8eGHH6ar78T/VatWierVq7vCp6r987zg9E1ZU9bEADFADEQMAyTOI6ZQkudZaXRiavojjzwiHfUIYhu5xEEceOlc0clCZC0ibGUKOmVIZXHSSSd5+jxevlsuXovEubofRZojq867DHbdHLt3717RunVrYluvJ6JEnJ977rkCi776WUicF9g4Fp3eunWrqbjXr18v8vLypGyMxHmBbP2u30ich5M4/+9//yt69Ohh2aZ78803ldbusKp7MVuxfv36UnbsJXYRjILZaGblt99+E+edd17Wnk31PaHDTp06WeY6RwDB9ddfH7r3UpUHzwvO71PWlDUxQAwQAx5ggMS5B0IkWR37hh4axFhcSzbCG+kFRowYIWRzwjo5v9NOO81yWq9ZRySxDYtPgch3uj73p/oNEuep8pDBB0gzu85kAptefCM1UjbJABm5+H1slIjz0qVLK6/n4BZXJM4LbLx48eLiiy++MBUdcmU3bdpUqg4hcV4gW7/tnsR5OIlz2AgGfc3S7MAQ58+fL50iCVgjcR6c7UHeZcuWtRzkRZpE9Af89gG8frA6p7wpb2KAGCAGIoIBEucRUSTJ+6w3Ni+//HKxe/duUzLBaiMivGfMmOF5XkOQYitXrrS6reX2LVu2iAYNGmRdlmGrYEicZ+ZHTz/9dLFo0SLT/K2WYFXYoZJGImxYdPu8USLOixQpIkaOHOkrfkicF9g4okGRy9ysoA686qqrpOoQEucFsnVrv6rHkTgPJ3EOfTdp0sQyOANpPsqVKydld7hm1Ilz1A1YSyX9g1zi8DuqdqR6Hu6J2akgyc3Ke++9F/gzqb4LzwvOb1PWlDUxQAwQAzmAARLnOaAEkt6RaCjWrl1bbNiwwawtbLtt+fLlSh0eOwcK8vvnn3+2va/ZzgULFogKFSpEQh928vF6H4nzzPwoOpNdunSxJAXMsKqyLT8/Xykqz2u85ML1okScAz/IlW9FRqhgJf0cEucFNg4yasqUKekiMv4j3UDbtm2l6hDor2fPnuKPP/4wveawYcOyQnJlYqevv/66aT7qAwcOCOSIz+TamZxL4jy8xDnadcCPWfn222+V2m5RJs6RchBr/SA4ZebMmSkfpCSsVKlSVuzw4osvFvv37zdTo4AeQfJnYuM8t6CuoiwoC2KAGCAGiAHPMEDinGDyDEwxHwBIRM2atoZtNu7atUvUq1fP04Zy+/btBRZClC0TJkxQypMZdwyROM/cj2JBQQwi+Vkee+wxz9MihRX7USLOoQMsqobFlv0qJM4LbBypycaPH28qauQfBlklYxckzgtkKyM3lWNJnIeXOK9bt67AOh1mZd26daJy5cpSdgf8RJk4t5uJhLSKtWrVkpaXis2ln4NFQq3W5MCMnbPPPjsrz5X+nPwfnF+mrClrYoAYIAZCgAES5yFQUswJ6bA4EizI+dJLL5n1aWy3IWcl8qN7+Z59+/Y1jXazfRB957333itAinj5LHG4FonzzP1o0aJFxejRoy0XP3PCrpv9d9xxB7H9v/okasR5sWLFxLx589zAQOkYEuepNv7EE0+YyvHgwYOiY8eOUnZG4jxVtn7WmSTOw0uc16xZ03Im4aZNmwTaIbLYIXEenO0ldIM1IubMmWPqPxHwctFFF0nrMXFtfgevT8qcMicGiAFiICYYIHEeE0WTfA+kIdqjRw8lwnratGkC0TFeOd7nnnvOtFFut/HYsWPi0ksv9ewZvHqXMFyHxHnmfhTkWbNmzQRSPfhREGHm9cyOMGDT6hmjRpwDPwMHDlTyv27wRuI81cZJnKfKI93OmKrFXj7p8vLiP3wAZjv8+eefpiaN/NHIz+/mXnXq1BFY6NasvPvuu1mZuXTuuedaPhOI82rVqrl6t+T3J3EePE6BQQTZYI2j9IJ6BmnHknXE38HriDKnzIkBYoAYIAYKYYDEOUFRCBQk2ZUbrchBeejQofS2sOP/zZs3K+WntNIdOoiyBWkOatSoofzuVs8Sh+0kzr3xoyVKlDAWHfz3339l4et4PHKHlilThviOaMQ5/EzDhg19G3ghcZ5q4yTOU+WRXs+ROLeXT7q8vPhP4pzEeTKOcjVVC55r3LhxprPr/v77b89noCbLhL+D90uUOWVODBADxEBEMEDiPCKKJNmdE4RY6dKlxdq1ax1JvPQDQMpcdtllnrwDGuVLly5Nv4Xj//Xr1wvkaadzl/cJJM7lZWaGMxAfrVu3Fkj34HV57bXXPJ3VYfb8YdoWtYhzyL5kyZJixYoVXkPHuB6J81QbJ3GeKo902ydxbi+fdHl58Z/EebSI8+nTp5v6ciyQmpeX59hWzVXi/OSTTxYjRowQIMnTC7Z169bN8d28sBdeI3gfRZlT5sQAMUAMhBcD/w8AAP//fGzHPQAAQABJREFU7d0HmCRV1TDgi2SWzMKCZEmykgQk861klKSAEkQUQZFfJYqSRFGJiqIIhgcQBEUByR9JJIrkLDnnJecM1l+n/AZnZrtnOk311MxbzzPP7vR097313tPV3adunZs+/OEPZyklPwzEQAdiYPLJJ8+OOeaYrJVt//33zz70oQ+1PQ4zzjhj9q9//avpLlx66aXZmDFj2m5/NB5PFlpooezVV19t2vzoo4/m3e91N91002URi53c3nzzzWybbbZh3ct6/vnnzx5//PGWmd99991szz33HNB02mmnzW688caW2vj73/+ezTbbbAM+f61jze9+97vs/fffb6nNgR709ttvZ7vsskvT/anVx2Zum3nmmbNzzjmnZtfeeOONbOWVVy69T9H/n/70pzX79PLLL2dbbbVVU32abLLJsq9//etZ7E+tbb/99sviPs24dfu+xx13XM04fOGFF7IVVliha/uy7bbbZm+99dYkzE8++WQ2YcKEhvoV93v66acneY644eKLL86mnnrqhp6n02MUMfK5z30ui+N9re3MM89suG8f+9jH6h4fzzjjjGyKKaYofR8XW2yxun267777soUXXrjpPsV41doeffTRbNlll236+To1pvE5IJxrbU899VS24IILDtq3KaecMvvhD3+Y/fvf/57kaV577bVs8cUXH/Q5OrU/vZ8nYuf73/9+9s4770zSr7ht++2370q/evfR/+VFxIAYEANiQAz0iwGJ834gvRILgoVNKzHwla98peYX00k+Ife74ayzzspmmWWWtj8wzz777Nn999/f79kH//WUU05p+EtlKy4j+TES5509Vuy88851k2iDR/Kk93jssceySISM5Bhsdt8i8RDJsla3SJwPlkjuRuJ8xx137Gjs9PhInPd9jUuc9/Xo//o79thjaybOX3zxxWyllVbq2rHoq1/9ahax3H974oknsv/5n/9pqF+rrLJKFvevtV155ZVZvO77e5TxeyTO650YiL7+6U9/ymJyQyN9kTjvbuI8JnGce+65tUKsiL355ptv0HEcLHE+fvz4QZ+jkVhp9j6ROP/BD35QN3G+3XbbdaVfze6H+w/8HsCHjxgQA2JghMWAxPkIG1CJ/65/4Fx++eWzSNQ1u91zzz3ZMsss03b/55lnnrqzkgbqU8yUjy8aDvLNHxMkzps3GyjOll566ezuu+8eKFwb/lvMNovZyzPNNJPY7vX+sNRSS2WRxGt1i5lxg33B70biPJJ/7ZwQqOchcd73NS5x3tej//HsF7/4Rfbee+9NEk6vvPJKtvbaa3ftWPTtb387i5Ne/beHH3644Znwyy23XPbQQw/1f4ri99tvvz2bfvrpu7J/ccXeTjvtVDMhGZ377W9/23C/JM67mziPKyevuOKKmjH24IMPZmPHjh10LCNBvc8++9SccR5Xt6y44oqDPkf/13Unfo/P2YceemjN12G8z2y66aZd6Vcn9s1zDPy+wIePGBADYqDCMSBxXuHB65UE8SIcPuM455xzZpdddlnND/wD3RiXuH/xi19s+wNzlGCYOHHiQE3V/FuUDWl0NpZ46xtvEud9PdqNj/jSfNJJJ9WM02ZvjOTV4Ycf7qRQv/eLtdZaq+YX90Z94wt+lEUYaKy7kTiP41+r5WEG2neJ876vcYnzvh79XwcHHHBAzddXJOy22GKLAV83/Z+rk78fcsghNWfCx4n7Rq/KiZm6d911V82XSyQ155hjjq7sX3x+2XvvvWu6R2d//OMfN9wvifPuJs4jMV6v5OBtt92WTTPNNIOOZcTDt771rZqJ8yhX9KlPfWrQ5+jka6/nuaKU0VFHHVXzxFqUGVp99dW70q+e/vl34GM7Hz5iQAyIgVEaAxLno3Tg+yVRHAA6FweRLKo326zmN83/uzESfL/5zW/arnPeauI8koudqLE+GmNJ4rxzr5+In4jDqElea2bkQK+hWn+LGZ7xXFWrkTyUr6NIKOy+++61uBq+LWrERvJ9oH52I3Ees12jJEOnN4nzvq9xifO+Hv1fB9/85jdrlmyL9/k99thjwNdN/+fq1O8xA/fEE0+s+dK44YYbso985CMN9SvKZNQ7ORVXsSy66KINPU+n9qvneSIhGXFZb42DHXbYoeF+SZx3N3EeMVTvyqGoy97I1ZHxnr/11lvXjId4HUbZop7YKfPfqN/+5z//uWZC/6WXXsq6VUKmTANtDfz+wYePGBADYmAYxoDE+TAcFEntrnyY7dQBKpJ+UWez3kJnNb+1/t+NMcNm1llnbWv/W02cx6J68cW6Uw6j6XkWWWSRphcHjRIiv/zlL3nXOd5Fcubee+8d6OXS0N+iBEEnSiCNpHiOBSdPO+20hvzq3emZZ57JoizVQC7dSJzHSYHddtutXrdbvl3ivO9nJYnzvh79XwdbbrllFleR1driBHnEaf/HDPXvM8wwQ/aPf/yjVpeyv/3tb9m4ceMa6lMs2hv3r7VFQrLRWumd3t/YvzhpVmsxyDgJu+aaaza0f9EvifPuJs7XWWedup+hjz/++IYneay77ro1T2BF7B544IFdeR3GWkb1FkCPRVnjqtVOvzY838DHaz58xIAYEANiYNAYkDgXJIMGSZ3ElsfVj52oH/z444/X+l454G1x+ehnP/vZtj40x4fuevVHB2r897//fUOzeIz7pOMeNV+bPVESX+T333//tsZ6JI9FJJbii20kYtrZLrjggiwSxSPZqtl9++QnP5k98sgj7bBmUZIhFhgdqO1uJM6jP6uttlr2+uuvt7V//R8scd73uCdx3tej/+tgjTXWqFsyLZLXsfhh/8cM9e8xo7zeop5//OMfG65NHjNmTzjhhP4vkQ9+jzrjQ70vtZ4/PvvE4qS1tueee66pmfAS591LnMdM8Vg8s9aVA/G5KcogNXoF2RJLLJE9//zztUKiOHncjXr8MSng/vvvr9mnm266yedw3zm7cvysdUx128Dv83z4iIFRFgMS56NswH0gKeUDSXwYP/fcc2t+MB7sxrPPPjuLL6atHoxjxnorCyuec845WSS6Wm13ND8ukiRx0qOZrVuJuCqN0+KLL5499dRTzbD2uW988d5zzz27MqtsuDpHcumvf/1r22Vwrrnmmixmng60n91KnEeN5aiD28mtW6/XOOkTx+ZaW5ysW3nllQccg4HGp52/SZwP/NlxoDrgzz77bFNJ3HbGqfdjN9poo7rvU3GSspHyF/F8cVIzFl2st8WM+iib0rvtMv4fi0rHFUa1tltuuaWpBaIlzruXOI8rB+qdAInSa3FFZ6PxNPvss2d33nlnrZDIbr755iyu0Gz0uTp1vzhxXe9qlLgSrNGTAp3qj+cZ+FjOh48YEANiQAwUMSBxLhAcDDofA/HB9+tf/3rNS4ZrfoLvdWPUOFx22WVb/jAfyaqYtdLsFjVLY1FG8dB8PMQiic3OjI5FoL785S/zHuBkXiRo4kRSq1vMNIurAcR0Kr6ML7DAAkXSPJLA7W6nnHLKoDNUu5U4j7iJxY5rlWxodb8lzvseFyXO+3r0P8bEyZu///3vNcMt4jJqL/d/zFD+HmXYYh2TelszC5PH55sNNtig7sm3SHrOPffcpe5f2MVaFvWuNIkZ8nFcaNRY4rx7ifOVVlopi8/BtbYoZbLqqqs2PI5xMujUU0+t9VTZ008/ncWkh0ZjolP3+/73v19zNn18howTWJ1qx/MMfIzmw0cMiAExIAaaigGJcwHTVMAMkOTyPH1jaeGFF84ee+yxmh/YB7oxvlTvvffeDc/+6u8eX2ovueSSgZqo+bf4QtKNL7v9+1+136Om/c4771zTdKAbY+ZUzACs2v6W3d9ddtkli5MMzW7xOjrvvPO6UhKhLKNICsR7+NixY4v9jFmeU001VXHsiH8jcR2zwmP2ayyMd/XVV9f8wt6sbVwu/6Mf/WjQY1S3Eufhv/nmmzddPmkgB4nzvu9vEud9Pfq/5qeZZprsV7/6Vd2QitJo7VxZ1r+9wX6P48Q///nPmv2JZHPM1h7sOXr/Pco01Sv3FGXqmqkn3vt5W/1/HPvqLbgY7x+xWGszzy1x3p3EeYxjlGKpd9LziiuuyOaZZ56mxnLHHXeseZInrhL8zne+U+raPlHf/Lrrrqv5OoxZ6FtttVVT+9ZMTLvvwMdsPnzEgBgQA2JgwBiQOBcgAwaIRHnLH2IjcRV1Q2vVaaz5qbnXjRdeeGE211xztdz2H/7wh17P1th/X3311bZmuo/WOIovevWSSAPJT5w4MVt99dVbHuPR4h2lKOpdfj+Qb5SxiC/MI9kpTnSddNJJRVmoY489tojDH/7wh9m+++5bzFw76qijsrPOOiu74447stdee61uMmIgx1p/i2NFzJgd7JLybibOF1pooZbiptb+xm0S530/K9U75rWS/Om5QqveOhH77bffoLE23F7nsU9f+MIX6r7/x2tyySWXLOX4FH2JGeJRIqbWFmWXZppppqb6EicGTj755JrHlHitxIm1wY4PnRyzT3ziE3VrykeCf5VVVmlq/yTOu5M4X3TRResmliOZHldNxGeuZmLnox/9aDG7vH/s95xcbzb2m2m79317XofxXlxri7rngy243fv5/L/vexIPHmJADIgBMTCkMSBxLsCGNMBGeeI9Lh2OJFOzW1xCuu666zb15aD3OMaloK1sm266aalfdnv3uar/jy9dUZey2e2+++7L4st5Vfe7rH7HbOrzzz+/Wd5i8a34wlxWP7vRTpRe6SnLFEmA+IkTdfHT83vTcA08IBYGbSR2u5k4j9m8cQKyU5vEed/PShLnfT1qvf5jMc56i4THLO9dd921lPfbSDT+9re/rVlOLI4Ve+yxR0v92GKLLepe1REnBqK+dC2XTt8W+xelmeptcRwYN25cU32ROO9O4jyuMKt3Ai1eM62UVolJLPXKJr3wwgstPWcrMRylEONEd70trpAr6zXTSv89ZvBjPiNGYkAMiIERHAMS5yN4cEd50no4HLhiccNbb7213ufkurfHl9mYLdpMTc7e+xuLJ0Wip9ntBz/4QamXrfbuc1X/H8nLa6+9tlnq4jHNXnJcVaN2+h21eeNy6nhNNLpF0vhPf/pTFouMtdP2cH9s78R5ozbt3i9s40qaMWPGDGrbzcR5lLE57LDDal6i34qBxHnfz0oS5309ah0rImEXC2XWOnbF6+iGG24Y8sUJY5ZrLEZYr2xcXM0Ts3xr9X+w2+KKl1hgsdYW9Zpj1nkYDPY87fy9Z//qnaAI57hiodGFT3v6InFebuI8xjGuwLjrrrtqhVNxW5wAmX766VuKp+9+97s1F8aN+IgT82UkrNdff/26J9LiGLH77rv7/O17a0vx3XPc8u/g78uMGIkBMdByDEicC56Wg8cHnEE/4MSH/OOOO67uF4GB/hCXFy+yyCKDtlFr/KK+aMykaXaLBf8sENrcMSEuAa9X67Wef3xZixIaUe+y1vi5re8YxGK5sdBno1vUtI3FeVs98VQV/24kzuMy8w033LChGardTJxHIiYWPIy1BDqxSZz3fU1KnPf1qHfMWG211WqWiYiYfOedd4qZ4K0mA+u12fv2ODl72WWX1UzeR3L793mt9Tg52fsxjf4/kuJxcir2o9YWpWHiyrlYB6TR52z2fvEeGidJ6y3O/dxzz7VUgk7ivLzEeRyrY02gv/3tbzXjNGIrjuOxbkWz8dFz//ic9sADD9QK0yKhHifno/xQz/07/W98rj7zzDPrxmmsMbTYYosNWfud3h/P19jxnxMnMSAGxMAIigGJ8xE0mBLZw+5DZ3wh+PznP1+zDmjNT/C9bozk6oEHHtjSl9qY6X7vvff2erbG/huzx+ILjIN848eF7bbbrqgf3Zjwf+4Vs4t+8YtfDOkXtZE0hvGF9oILLmiYOGZRxmtgJBnU2peyE+dxTIpZf5EQr9Wf/rd1M3EefVlhhRXqzrRtOJj+744S532PifUS55HganaBu3ifjBNd9Uo0VLHGec9rIV4Dp556at2EYCSdv/GNbzRdt7nn+Qf6N8qIxZVr9bZIKm+yySYNvZbrtRPrdNSb7R3tRtK+1QkA9drsuT1soyxdvcWj4302Sri0Muu9aonzqI/dyme3iy++uGZ4RCI3Tlj3WA/Vv/HajysX6i3sGp2L951zzz23rYkGkbg+4YQTau5r3Bj7GzPCoz+d3tc4MXbooYfWPcEUcXrIIYcMSdud3hfP1/d9kAcPMSAGxMAoigGJ81E02BLrHf9A3MjBMr4U3H333XU/sA/0h3hcKwnAqOdZr6bjQO1FbfX48tDIfrlPKr7o1LsUfyDnd999N9t5552HdCbeSBufWOizkfJD8SU0xqTR5G6VncpOnEeirZlZf91OnM8555zZlVdeOdBLseG/SZz3/ax08MEH1zwhHHWIv/zlLzf1HjKSE+exb/GaqbcwZwRgrBkQJ2A7OeM1kub777//gFfqxAzYZmt/9z9eRjmsSE7HcbfWFq+bSIrGYr2dTErOOuus2d577113DZlItkad9VZn8Q7HxHmcgIgEb63toYceaumzYjcT53FCY6WVVsriSsd6Jz9iX+NzabyG2rlyIWIvrsSM97BaW8RvlE6KGuqtnGjp/7ro+T3WaIkSiHFcrLe1E6c97fi37/sTDx5iQAyIATHQ8RiQOBdUHQ8qCfo+SYMoFxH1FSNZ2uz21ltvFQt3NVufM+oPx2Jg9b7M1utHfMmNL9tiorHjQlwmfvvtt9fjrHt7zKxca621ODdxrIgTSPWSBr2h44txXJY9GmK4zMR5JKKitnkkAhq17XbiPBYN/OUvf9k7PFr+v8R532PiXnvtVbPsQLxnfetb32o4RiKWRnLiPPYvkrzx2onXUK0tbp84cWJ2wAEHFInsdhLM8diYeRyza19++eVazRW3xXFy7bXXbisZ2TN2USN9oPfBmFUfM8//53/+p6Ur6Hofb2L/5phjjuznP//5gOXoYlH2WGiy1WTrcEycR9mdmFlea3viiSey5ZdfvqnXXbh2I3EeYxgTSuJzcSySXq/MTuxn/O2II47oyHol8X4QM7vrfRaPz8tRdi+ufml3fZTYx/nmm684if/SSy/VGrLitvgsGCeAmv2M3/s14f9935t48BADYkAMiIEhiQGJc4E1JIHVREJsNLQ///zzF18Q6n56HuAPMWOy2UUkI1kfyYtI9jS7XXrppQ0t/Dcaxm2wfdxoo40GnClVzz5mh8WXqsGe39//e3yOS63jcu16yaewjr+dccYZQ1L2YDiORZmJ84jZlVdeualZo91OnMeYRamsejWY670+a90ucf7f12K47rDDDjUX2wvrmGHZzOslkkwDlWqJk7lRhzve17r502oSNix6Fj4c6PgVCb0oSbXeeusVZSkimRY2g1nGfWKWbFxhEXX9Y+bsQFvMfv3e977XdhK7d7+22GKL7JlnnqnbbOx3HEN22223bN555y2O0Y3sW08bMf6xgONnP/vZ7Jprrhkw2RptnX322Vk732+GY+J8ttlmy2677baaxrEGSCsn4wdKnEcivp3XW4xZxHAkrKNcScRnvIdE7N166611E9g9OxhJ8ygNFidKeuKg3X8jYX/FFVcMOKkkTrrE2kQrrrhiFlduhEEj7fa8Dueaa65sm222yW655ZYB24k4veSSS4Z8geBG+u4+fd/fePAQA2JADIiB/jEwWXywfPLJJ/PbbQQIDJVA/oU75bNm0k477ZTyLxNNNZN/iE/f/OY30x/+8IemHpfXHk15EjHlX7aaetyLL76YNttss5Qn0Jt63Gi7c/5FMOWz+lL+RT7lX5ia2v380uSUlzNI+eXJTT1uNN85/wKe9tlnn+InTxLVpMhnWBavsZNPPrnm30fajXniPJ1++unp4x//+JDuWl7DOO2xxx7F8SRP7jXcVp44T//4xz9SXiu34cf03DFPKKQ86Z3yhFDPTS39m8++LY5l+cnHlh7f86A8IZzyBeRSvjZBz02l/DvzzDOnE088MeULsk7SXhw/8mRZuvrqqyf521DfsMEGG6S//OUvKb+6qU9TeTIo5Umn9LWvfS3lCbA+f6v3Sxw/81JM6Wc/+1mKmOm/nX/++SlP8DX8fP0f36nf77nnnpQvYJiaeQ30tB2fAT7zmc+kfKZ0yk+a9tw8yb/hl88GT9ddd10xrvm6IymfBZvifTmfnfpB23kyMk033XQpvwIk5SU8itfYqquumpZZZpmUz5at+54Ufc9rrqc8gZ3yRPck7bd6Q35iszg25yXIao5hz/PGPvzrX/9K+Qz0dNVVV6V8LZaUl7FJeTI/xb73xEyerEx56ZqUz9ZPH/nIR1KexE0TJkxIn/jEJ4rb6r3nxuPzhGXKT8Sk66+//oPn62m/0X/zxHnKk7YpT7RO8pC8xE363Oc+l/LE7iR/G8ob4rUWx/t8wdVJmskXbS5ec3lZnKb2OV5XcQzpv+WzpIvXcRz7W93ifTpez3EMy5PfacEFF0z5JJIiZuP9fKAtYuHyyy9P3/72t9NNN9000F2b+lu8Dj/96U+n/Eqkoj/1HpzPPk9PPfVU+uc//5muvfbalJ+wSI899lgKlzju9ox9vA7js2DEaX7lRfFeHK/DpZZaqtjves8fcZqXYizGLNqI/bURIECAAAECw1ignRkZ+W41dBbe/TiJgZTlX3ay/IN4/nm5+S3/4N5UiYTwjtlZN954Y9ON5R/gszwh0tF6qyNx/KMcSMzyanaLmavbbrutY2eT7x8xmytPHg5onicQR9XsrTJmnEdt5q9+9asNz7rr/VofDjPOY7ZjMwvL1ns9m3He93NMfrKm7vtZzGJtpl53vLYHmnEeM0/Dv9s/Uf4kZs72jvFm/h+xGOVDYgHVwbZ4H47Z+3HfKMMRM43zk1DF2iWxfkmebCtqeEf95zxpWszejccMtMXf4zmi7FWYN9P3Ru4bnzmOOeaYQWcSRx9jdn3M7M2TkVl8vol66zHL98gjjyzKW+QJ4qKvUZokSl2ERSP7d+eddxaLArdzdUDs63CccR4zuOst9hqvjfzEXtNXEdSbcd4Tf+285mLMYpyjBMpgY9c7buO++UmPLI4x7Y5jrbiNWfBf+tKXGnodRt/DIGIwSsXlJ7KKdTPiNRg/cfXDXXfdVVxt0fM67L0v9f4fC5jnCfwh2b9a++y2vu9fPHiIATEgBsRA0zEgcS5omg6aJhNenv8/MRaXm+Yz5+p9jh7w9vjyEV+44wN/o55xeelhhx3W1BeWnk7El4QVVlih4bYa7dNIuV8kBA866KABL8Ptsez/bywEFwnPkWJR5n7EAnNxiXetLb7gRomISE6V2adutjWUifPwjERBJDTzma0tmQ6HxHmMT9SQjWNoO1skT+IYXPZ457M1s3POOadm16M+bpQ+KLtP0V6UPKj3WoykUDPlxQZLnNfc+S7cGHXK20mch1s8Pmo7R03zZpKJ7e5u1J6PJGmUjBmKpHlPDMa6H7G+ykD11dvdl1qPj5MrURqjU8nI4Zg4D+MokRQJ6f5bHK/jpEWzx+p6ifP+z1/W7/HZMyZuxEKoQxmn8Vk6vwI0i2NVma/DaCs+A8bkiU4uQtrz+vOv7/RiQAyIATEgBoYoBiTOhwg2/4AraBn0joFIZMcsl0jAtLLFTJf4Mtf7OQf7f9RozC/xbrq5+HD/k5/8pOkvYYP1Z6T8PWbsxXg0u8WX27zkTtOzwkaKW7v7EYnYvGxFTfb8kvJs6aWXbur10W5/uv34oUqcRw3kSNauueaabZ2IGC6J89iPF154oWbcNHqjxHnf9/NYgDovC1Ez6RRJ2qgt32jiazQlzuOYEbPxv/CFLxSJ3jKSdjETNpLZQ52M7Dkejhs3rjhZFScHythi/yIW42R/zMru6Uc7/w7XxPn48eOzuMqg1paX9ylOaDWz38MlcR4nA/ISPtk3vvGNohZ6M/vQ6n3jdbjpppsWV2bGiZeh3mIfL83XEFpnnXXael9tdX89ru97GA8eYkAMiAEx0FQMSJwLmKYCxgmBtr6UxaXMcQlqK1skI2LmZDNfDOOLQSw+1Mp2xx13FLPTxMekx4i83nNLJ0Di0vRYNIrppKaNmnzlK1+ZZGG4OCHx05/+tKnXRqPtDef7dTpxHkm8KAuR15XNYiG6dvd9uCTO588XZ663qF6jx0aJ876v2TgRvOeee9ZcIDRMzzrrrIbLtYy2xHm8rqIERcz+jhNUtWYQNxqXg90vr49elFpqd6Z8s8eCiI8oZxYlZYYyKZnXg8/22muvYhHHZvs40P2Ha+I8Pv9FiZBaW8zyj5KAA+1X/78Nh8R5lDA88MADi6T/UJRm6b/PvX+PY0+8jx5//PFZnDAeqi1e40cffXSxMG7v9v2/7/sKDx5iQAyIATEwbGNA4lxwDtvgHIFJ+viQvvXWWzdUW7HWB/hI/sSssUbHLNrbdddds7ikv9ktEkUx69zlpH2PER/96EeLmpbNesb9Y/zi8Y2On/v1tQ+P8MsXtevDny8wl0VydLR5tZs4j0R5HBuiJMtFF11UJEIXW2yxjp2AGC6J85lmminLF+StOTu6TyAN8IvE+aSvxbiiKRKztba40mmNNdZoaNb5aEyc9xyr8oU8s6222irLF/IuTlpFnLWzxUnESKBG2ZKDDz64SM6XnYzs2bf4N0r2RImjmGkbM6XbLZkU+xcnoGP/Dj/88KIO9lB8RhmuifMwDc9an+nieB7HubgapPcYDPT/MhPncQIl+h3v3/FZKPqaLyZb1NwfijEcaL/7/y1f3DbbbLPNstNOOy176KGH6p4QbPS1GWMRk10eeOCB4iq59dZbzxWcI/A7Xf848vuknxOYMBEDYmCkxMBkkTh/8skn8/2xESBQhkA+6zzlNRzTJz/5yZQnDJpqMv/ikfJZKymvkZryD+UNPTZfYCn96U9/SnnCsaH7975T/kU35ZfcpyuuuKL3zaP2//mXq5TPbE7bb799ypMRTTv85je/Sfls3pTPbGr6sR7wH4E8GZvyWZpprbXWKm6I18QRRxyR8oXRUv6ldlQx5e/fKV8sLq266qopT5ak/AqTAeMyrN58882ULziY8mR5yhc1SzfddFPKk1Ap/4Kf8sVuU57Y6phhXm8+/epXv0qLLrpo08+Zl0JK+++/f9HXph/c7wF5Pdu03XbbpTxBOaBPv4f1+TXsfv3rX6c8sdLn9qH+JZ8pnPbbb7+U1zKfpKl8FmPabbfdUl7iYJK/lXFDxFy87uK9rP8Wr8V4n8sXfEx5Mrj/n/v8Hu+DG2+8ccrLNKSImeG65TN9U34yuXgNdbKP8V6SX+GRllhiiTRhwoTCMy8HlvJ64Slid7AtrOM9Jb9aJOULbab8KrOUL5RcvMYb/ZwwWBvt/D2fJZ3y8i1pmWWWSfnJlLTaaqulhRdeuNi/Rt5HY//ycizF/txwww3F/uVX7qW8PnXHx6JnPxdccMHivX7s2LE9N33wb77AanFsypP4H9xW5n/is1wcG/N1BiZpNpz22WeflK8/MMnfat3ws5/9LC233HK1/tSx2+L9Jq9dnuK7Zp6ULn5i7OLzZfwtTzJ3rK12nihiMT/JmvJyOGn11VcvXov5VSEpPrPnif2Gnjpeb/mC2sV76mWXXZauuuqqdM8996T8ZNao+3zSEJg7ESBAgACBighInFdkoHRz5AjklzCnHXfcMeULdxbJrmb3LJ9tlbbYYot04YUXNvSFI5/RViQW8xIXzTZV3D++hG+55ZbFl4GWnmCEPCi+VG2yySbp2GOPLb7wN7tb8YXqM5/5TMpn9voC1Sxer/tHki2SBvETYxJfxPPyNykvCdDrXqPjv7H/8fqOpNRcc81VJN/iS34kHyMBEF/2I2kZX9ojsZbP9Et5aYMigRFJ8nz235DGYoxV9CX62ewWSalIDHfqZEgk7xpNftTra5xU6OSJhXrt9L49DKPf8b7RfwubGN9uJp4isVsvudvMGHZifPr7dPr3Zvan1bZjvPMFHoukaCTw8nUbUr4ocvEajxNjPVuMeSQjH3vssZSXVStOnuRX3qS8ln/qVkK3p28D/Rv7F8es/AqhlM/qLn4iiR7Hrd5xFCeqIqmaL6SY7rzzzmIf77///mKf429DvcUxK45d0d/+W/gOdjKo/2M6+ftAx4RoJ46bjRrFPtY6tnSqv3GMCq84bnbqWN6pvg32PPF6i5PTcaIiEuj51Z7F73HCsGeL12G8t8ZJgbvvvjvdfvvtRaI8Tgp0M0Z6+udfAgQIECBAoEMCSrW4fCIPpYYv63Tfzljls5myfCZK/j2ite2CCy5ouFZi/iUr+/SnP91y/cb8S0GWzypsuF7tSI2ReeedN8tPVrRU7iH/clXU/I2SESPVp8z9Wn/99YtFb8P15z//eVZ2/d4y97XZtuL1Hj954qf46fm92edx/84c6zlybCcG4nUc9cLzBGdRgiPKcPT85Inm4m/xGm+njW49tuc4FXW7o6xTz37Fv/nJg6JkVOx/VfevW67a7fwxJ2IwXof5Scw+cRqxGrfF38Rp593FMlMxIAbEgBgYNjEgcS4Yh00wjqIEfnzIjkUO87IJLWXO85lYWX5Ze8NflqOOaixC1up23333Zfnl1Q23N9JiKpIWhx56aMvjlc8CbLje70izG2h/Ilky66yzNh1XeemPLBavjYUsl1pqqaYfP1Cf/M17ohgQA2JADIgBMSAGxIAYEANiQAyIATFQxIDEuUBwMOhODMRiROeff36WX8baUj47r2ub5Zc4NzzLZZVVVplkUcVGG46ZvXmd82IBxtE2qyZmE+U1zbO8dmijXH3uF+Mbi2BF8t1r7b+vtZhl+LWvfa34iRNJzdjktX+zU089Ndt3332LWdXNPNZ9/zsGLFiIATEgBsSAGBADYkAMiAExIAbEgBgYIAYkzgfAGUUzoL1IuhMHn/rUp7KnnnqqT6K10V/yGpbZn//85yxfVKyhpGMkgI855pgsrzXZaBN97hftHX/88dloOmbESYJ11103y2vH9rFo5peJEydmeW30hk9wjIbXYrjGFQyPPPJIli8eWFz63Mx+RyxvuummoyoWm/Fx3+4cz7lzFwNiQAyIATEgBsSAGBADYkAMjLAYGE1JMME7woJ3BJzYiFnnJ5xwQsuzzvNFoIqSLTF7t5H4njBhQvbwww83k/ftc9+od37QQQeNmnrnMaP/6quvbnl8Au/kk0/OYoZ0I+MzWu6TL2aZnXnmmUVsXXPNNU0nwCPxHsnz0Xb1w2iJD/vpvVoMiAExIAbEgBgQA2JADIgBMSAGhkUMSJwLxGERiCMgCd6KYyT+1lhjjaJWc58MdRO/3Hbbbdlyyy3XUGI2FtyKxRRbLQ8T3XrppZeyXXfddUQvyBgLko0fP74oTxNlalrdHnvssWyllVaS4O31+g7biJ+XX365YI0rLlZYYYWG4reV15jHeI8TA2JADIgBMSAGxIAYEANiQAyIATEgBlqKAYlzgdNS4PRKhHl8ezEUyeyYxR2zx1vZ4nEnnXRSNvPMMzeUfFxsscWyW2+9tZWmPnhMLHa59957N9xm1WJkiSWWyM4666y2TjDE7PzvfOc72ZRTTtnQuFTNqNX+rrjiilksNttzQuKtt97KtttuO0aOqWJADIgBMSAGxIAYEANiQAyIATEgBsTA8IoBifP2kp6tJo88jnvvGIhSHtdee+0Hielm/xN1y7/3ve81nKTdeOONs0h+t7O9+uqr2X777Zc1Wiam9/4O1//HFQALLrhgduWVV7aVNI+k8Hnnnddw/fnh6tHpfsX7zU033dQn7MIq6pwru+KY2Ol483xiSgyIATEgBsSAGBADYkAMiAExIAbaigGJcwHUVgA5E9axM2Fbb7119uyzz/ZJKjbzy9NPP51FQnzyyScftE9jxozJfvnLX2Zvv/12M01Mct8ot/GTn/wkm3/++Suf+Iya2WuvvXZ2/fXXt5U0D6Qo0bLhhhtmUZbE6+s/x9i4IuLwww+vaRvJdHXgvRd5rYgBMSAGxIAYEANiQAyIATEgBsSAGBhWMSBxLiCHVUCO4kT82LFjs+OPP36S5HSjN8TM3SuuuCKLUiyDjWnM7o0a3tddd12jT1/3flFq4/TTT8+WXnrpyibPp5122myHHXbI7rzzzg9KiNTd4UH+EB577bVXFiV4BhuH0fL3iLcoxxInd2ptcfVDo3X6R4uZ/fTeLAbEgBgQA2JADIgBMSAGxIAYEANioMsxIHHe5QEYxYliL/6+sRfJxUgexmKJrW7vvfde9sc//jGbccYZB03aRnvrr79+NnHixFab++BxkbS/4447so022iiLJHRVxjYM4hgYM6HfeOOND/an1f+E/8knn1wpg6EeqzBedtlls4ceeqguayxWu/3221f2xMtQG3r+vsdKHjzEgBgQA2JADIgBMSAGxIAYEANioJQYkDgXaKUEmhMEDSWTo8xKzHx+6aWX6iYZB/tDzHg+4IADGkqex8KV/+///b/smWeeGexpG/p7PM9Pf/rT7GMf+9iwrn0eydwZZpihKG1zwQUXZGHW7hYnDy6//PIsFhb1mvrPcTWcwyOuhAifgbZf//rX2dRTT83OsVIMiAExIAbEgBgQA2JADIgBMSAGxIAYGB4xIHEucS7JN7xiIGZsH3vssVks+NnqFgnsmMHbSL3zmJ1+2GGHZe+8806rzfV5XCShb7311mynnXbKZp111uFxoOv1hhN1x5dccsnsd7/7XVE6JGY7d2KLuuZrrrlmQ+aj5TU3++yzZyeeeGJDsRwnHeL+o8XGfg6v467xMB5iQAyIATEgBsSAGBADYkAMiAExMEkMSJwLikmColeS0d+6Ex+f+MQnsttvv72tfO69996brbLKKg0tUBnHgTPOOKNjyfPoeJQ+Ofvss7P11luvSKA3ksQfyniL2cwLLrhgtuuuu2b33HNPzUUqWwGPmdRR7maLLbZoyHoo93E4PXecANpvv/0aLoHzwAMPZIsvvrjEueOvGBADYkAMiAExIAbEgBgQA2JADIgBMTA8YkDivDuJ0eGU4NKX4RcDUUIlFlN85ZVXWsnlFo+JhO7NN9+crbTSSoMmdKOkxnzzzZf95S9/yd5+++2W2+z/wOjD888/n5155plFCZqPfOQjWexbWTEX+zXTTDMVJxAOPPDA7MYbb+xIWZbe+/nEE09kO+6447AuTVOWd087Y8aMKU5QxKKfjW7PPfdccZKl5zn8O/yOS8bEmIgBMSAGxIAYEANiQAyIATEgBsTAqIoBiXMBP6oCvkJn7GLG7i9+8YssFpxsdYvE9d///vdskUUWaShZveiii2YXXXRRq83VfVz0I2ag33nnnUVZmBVWWGFI61lHwjzKfmy++ebZ6aefXpRk6VQpmt47GWVpdtlll2y66aZryHc0vNaiFM5WW23V9KKzER9xAiIePxqc7KP3XjEgBsSAGBADYkAMiAExIAbEgBgQA8M7BiaLxPmTTz6Zj5ONAIHhJjD33HOnY445Jq2zzjopL3XSUvfyWunptNNOS7vttlvKa5+nPPFb93nyhHPKF/ZMRxxxRFp99dXTVFNNVfe+rf4hT6KnfPHTlJeiSZdddlm6/vrr08MPP5zyGcfptddeS3mCO+V1x1Pcb6At+ponWdMUU0yR8pMMKa/Vnuacc8602GKLpdVWWy1NmDAhzT///GmaaaYZ6Gla+lsYPv300+mQQw5Jea309Oabb7b0PCPtQTEWETf5Qp/FODSzf/kJopQvLJv233//FDFrI0CAAAECBAgQIECAAAECBAh0U0DivJv62iYwiEAkhj/5yU8WydmFFlpokHvX/3NefiWdeuqpae+9906PP/54/Tvmf4mE9AILLJB+/OMfp8022yzltcEHvH87f4xk6auvvlokoaNfjzzySNG/vPxJevbZZ4sEeySlI5EeCfXoSyRnI0k+88wzF4nyeeaZJ+VlZoqf/ERgGjt2bJFIj/0Yqi36Fz7HH398ymedD1UzlXreOLGzxhprFCddxo8fX8RRMzsQJyNOOeWUlJcociKiGTj3JUCAAAECBAgQIECAAAECBIZEQOJ8SFg9KYHOCURCcvvtt09HHnlkWzPAYwZ3zI7eZ5990osvvjhoB+eaa6508MEHp2222abl2e6DNlLjDj0z4qO/kSyP5HpskTwPi0iIx0z4SKD3JMd7/q3xdB2/KRL63/rWt1JeAsbM6F66+YK26bjjjktLLLFEr1ub+++1116b8sVk08svv9zcA92bAAECBAgQIECAAAECBAgQINBpATXOh3ctnXy81ftlUNTQPvTQQ7N8dnaeV259i8cffvjh2WyzzdZQXM0666zZAQcckMUCmHkiu/WGR8Aj8/Ih2eWXX56tvfbaWZ7Ab8hvNLx+oyb5UkstlV1yySVZfnKjrZGOxVvzcjtsHfPEgBgQA2JADIgBMSAGxIAYEANiQAyIge7HgMS5xPRoSO6NhH3M651nf/7zn9tOTuZ1xLOjjz46GzduXEMHoOmnnz774he/mN17772jNnkei4CGfSSIJc3/e8yMpHks9Hrddde1tYhtZNvjpM53v/vdIV00diQcB+zDf+OPBQsxIAbEgBgQA2JADIgBMSAGxIAYGNIYkDgXYEMaYM6ONZScbnQM8jIY2R133NF2AjsvgZLlpV+yWWaZpaH+5aVQiqTxxRdfnOU1x9uaVVylB8cs+6eeeirba6+9sjFjxjRk1ehYVv1+ERN5eZYsL6/S9pDm5XiyE044IYsrHKruov/eU8WAGBADYkAMiAExIAbEgBgQA2JADIyQGJA4HyEDKUE9KhJuMcM3X4CxI8nzmOF71FFHZfnimlkkQRs5qMes9/333z97+OGH207et51tHeIneOONN7K//e1v2SabbJJNM800Dfk0YjgS7pPXly/i8Oqrr257pnmUwDnjjDOyfIFXxo7jYkAMiAExIAbEgBgQA2JADIgBMSAGxMDwiQGJc4nzkZDIG037EKVCNttss+yxxx5rO3UcJUhOPfXUbKGFFmr4oDTddNNlK6+8cvbXv/41e/3119vuw3B8grCNWeZxfFSape8xMjw23HDDonRPuzXNY0b/FVdckY0fP77hkzej6bVuX/vGHg8eYkAMiAExIAbEgBgQA2JADIgBMVBqDEicC7hSA85Zs4YT1AONy9RTT53tuuuuWdQrb3eLMhlnnXVWtsgii2Qxo32gdnv/bcYZZ8x22mmn7Pbbbx8R5VsiCfzcc88VJwRWWmmlLGZV995f/09F/fHNN988u//++9sNu+KKhaibH1dQNBN3xsF7lhgQA2JADIgBMSAGxIAYEANiQAyIATFQRgxMFonzJ598Mm/LRoBAlQRmmmmmtPPOO6fdd989zTzzzG11PU+ep7zsRjrggANSPgM45eUzGnq+PLmc8tnqKZ8Bn/KEavrYxz6WpppqqoYeO1zulGeA00svvZQuvfTSlC8AmvLyLMXvw6V/w6UfeT389OUvfzntscceKX/fSHl5n7a6dt9996XddtstXXTRRQ3HW1sNejABAgQIECBAgAABAgQIECBAoBkBM86docnjxczaihrEzPODDjqoIzO+o2xGzAD+7Gc/23TZjCmnnDKbd955szyJX9Rfj1nsVdhixn7Mtl933XWzGWaYwcznOq+DuLrgJz/5Sfbyyy93ZFgff/zxotyQmeaOvd5/xIAYEANiQAyIATEgBsSAGBADYkAMDNcYMOM8HxkbgSoLjBs3Lv3oRz9KX/rSlzoy2/uJJ55IBx98cDr55JPTiy++mGJGdqNbzEJeYIEF0kYbbZTyOthpiSWWSGPHjk15Yr3RpxjS+8W+vPnmm+nRRx8tZtjn9d3TP/7xj5QvlDqk7Vb1yfN65mnhhRdO++yzT/r85z+f8kVS296VF154IX3ve99Lxx13XMpr7Lf9fJ6AAAECBAgQIECAAAECBAgQIDAUAhLnQ6HqOQmUKBDJ6rnnnjvtu+++RfJ82mmnbbv1V155JZ144onp8MMPTw899FDTzxcJ10iYL7nkkmnVVVdNeR3rIoke5T7yWcZNP1+7D3jnnXdSPss5XXvttUVJluuuuy49+OCDKZ9x3tSJgXb7UaXHxzits846KV8kNa222mopyvK0u0VZsP33378oiZMvLNvu03k8AQIECBAgQIAAAQIECBAgQGDIBCTOh4zWExMoVyAvNZKOOOKItO2223YkyZkvlpmuuuqqlC8Amu66666WE8yR2I+ZylH/fIMNNkjrr79+Gj9+fMrLfwwpUPR/4sSJxczys88+O11++eUpZtPH7baBBaJOfcwwz8uzpDnnnHPgOzf417zMS3Fy5+ijj245lhpsyt0IECBAgAABAgQIECBAgAABAm0LSJy3TegJCAwfgfnnn79Y4HOLLbboSFmNKG1y9913p8MOOyydeeaZbS+aGbOYY1HT6Gck0iOBHqVAYrHJ2WabrfhbzJjPa7cXyf9Iuvf89ChHn+Inr8meYiZ5lPt44403irIyzzzzTFGGJa/Vnm699dYUC1BG8jzKs9gGFwjrGI+vf/3r6atf/WqKkzGd2J599tl0yCGHpGOOOSbF1Qw2AgQIECBAgAABAgQIECBAgMBwF5A4H+4jpH8EmhCIxOccc8xR1JDebrvt0nTTTdfEo2vfNZLUzz//fDr99NPToYceWpRuidva3aKvUf4jEuXTTz99kaSNUi49CfSYkR4/8bfeNdKjxEf8RAI2ZjFHHfboX/weP5FEf/vtt4vEeif62e5+VuXxMcs8SursvffeacUVV+zIiZfY9yjPst9++6W//OUvxdhUxUM/CRAgQIAAAQIECBAgQIAAgdEtIHE+usff3o9QgVlnnbVYMHT77bcvZm93YjcjCX399dcX5TauuOKKYrZ3J57Xc3RXIE5gxFUAEStRzzxq03dqe/rpp4uk+QknnJDefffdTj2t5yFAgAABAgQIECBAgAABAgQIDLmAxPmQE2uAQHcEYub5LrvsUpTdiER6J7ZInscim7Fw6B/+8Id0//33qxneCdguPUdckbDyyiunr33ta+nTn/50Mbu/E12JMjpRJueHP/xhOuOMM5TK6QSq5yBAgAABAgQIECBAgAABAgRKFZA4L5VbYwTKFRgzZkxRq3rfffft6EziqC1+ww03FItHnnPOOZLn5Q5rR1qLsjjf/OY3i5nm8847b4r6853Y4uRK1Jffc88902WXXZbee++9Tjyt5yBAgAABAgQIECBAgAABAgQIlCogcV4qt8YIlC8QNcS/+MUvFouGjhs3rlhss1O9iPriMfM8Fn2MBTkjoW4b3gJRN36VVVZJ3/nOd9Kqq66aorZ5p7ZIkt9yyy1pt912S//85z+LOvOdem7PQ4AAAQIECBAgQIAAAQIECBAoU0DivExtbRHoksDUU0+d1l577bT//vun5ZZbLk0++eQd68n777+fbr/99iKBfuqpp6YnnngiWZSzY7wde6JYYHXppZdOsWjsZz7zmfThD3+4Y88dTxSLsp555pnpoIMOSnfddZekeUd1PRkBAgQIECBAgAABAgQIECBQtoDEedni2iPQJYEoxbHMMsukww8/PE2YMKGjM88jUf72228XJToOPfTQdP7556e33nqrS3uq2f4CcaXBDjvsUNS7n2uuuTp64iTaipnmv/71r9OBBx6YYkFQGwECBAgQIECAAAECBAgQIECg6gIS51UfQf0n0ITAZJNNlhZYYIH0gx/8IG288cZp5plnbuLRjd31pZdeSueee246/vjj04033phefvllM9Abo+voveKqgphVvtZaaxWLf8aVBp0syxKdjUVAH3vssXTUUUel3/3ud8VYd3QnPBkBAgQIECBAgAABAgQIECBAoEsCEuddgtcsgW4KjB07tijZsfvuu6c555yz412JhOqTTz6ZLrroovTHP/4xXX311enNN9/seDuecFKBODkS47vhhhumrbbaKq244oop6pp3eourDG666ab04x//OJ133nnq23ca2PMRIECAAAECBAgQIECAAAECXRWQOO8qv8YJdE9giimmKGYjH3nkkWnhhRfuaOmW3nsVCfPTTz89HXHEEUWiNZLqtqERmG666dJGG22U4oRIp2vZ9+5xlGaJkyI777xzevDBB11R0BvH/wkQIECAAAECBAgQIECAAIERISBxPiKG0U4QaE0gZicvueSS6bvf/W7aZJNN0pgxY1p7okEeFbOTn3nmmXThhRcWSfTrrrsuTZw4UcJ1ELdG/hyLfi600EJpjTXWSJtvvnlaaaWVUiTQh2qLxV+PPfbYFCdcnnvuuaFqxvMSIECAAAECBAgQIECAAAECBLoqIHHeVX6NE+i+QCTPo1zLlltumXbdddc077zzDtns85htHsnW2267LZ111lnpf//3f9Ojjz6a3n///e5DVKwH0047bVpqqaWKZHnUMY+rBqaffvohG7uYZR4166M0y+WXX55effXVionpLgECBAgQIECAAAECBAgQIECgcQGJ88at3JPAiBaIBPpqq62WDjrooGLWcpRyGcotZqE//PDD6eSTT06nnXZauv/++9Prr79eLDg5lO1W+bljTGaZZZa0/PLLp2233Tatv/76Q7LAa3+j1157LZ1yyinpB/misrEYqI0AAQIECBAgQIAAAQIECBAgMNIFJM5H+gjbPwJNCHzoQx9KCy64YNp+++3T1ltvXcw+j9uGcovZ5k899VS65ppr0qWXXpquvfbadN999xUzmiO5Ptq3ySefvFjsc4kllkirrrpqUZLl4x//eJppppmGnOadd95Jt956a/rtb3+bzjjjjPTCCy8MeZsaIECAAAECBAgQIECAAAECBAgMBwGJ8+EwCvpAYJgJTDPNNMXs87333jtNmDAhRfJ2qLco4/L2228XtdAjWRtlXCKR/sgjj6RI4I62bYYZZkjjx49PG2ywQVpzzTXTIossUswuj5rmcXXAUG+xqOvxxx9f1DK/9957ldMZanDPT4AAAQIECBAgQIAAAQIECAwrAYnzYTUcOkNg+AhEcnb22WdP3/jGN4qyIFH7vIwEeo9AzDaPsiBXXXVVuvjii9MNN9yQnnzyyWImeiTSR9Js9HCdeuqpizIsCyywQHHSYp111knLLrtscVuPSRn/vvXWW+n2229PP/vZz4o69JFAtxEgQIAAAQIECBAgQIAAAQIERpuAxPloG3H7S6BJgZh9vtJKK6XtttsubbTRRsWs5zJmPPd0MxLkkcydOHFiUQc9FhaNn3/961/p8ccfTy+//HIxI71KifTwi8U9Z5tttrTQQgulJZdc8oOfSJzH7TGzvMwtSubEQq0nnXRSUXf+nnvuUW++zAHQFgECBAgQIECAAAECBAgQIDCsBCTOh9Vw6AyB4SnQk+hdb7310l577VUsTjnUtc/rSUSC99133y0WEo3FRW+++eZ09dVXF7W4o6xL1OGOsi/DbYtE+NixY9Oiiy6alltuubTyyisXyfK55porxcmJWPizW6ZxYuLMM89MhxxySLrrrrtGZWmc4RYv+kOAAAECBAgQIECAAAECBAh0V0DivLv+WidQKYFIoM8333zF7PPNN9+8mC0dSd9ub++991565ZVXilIuDz74YLr77ruLBUajtMszzzxTzEp//fXXU5QdiTIvkXiP5Hr8xEz1Zmerh0Pvnyi1MtVUUxU/MZN8xhlnLGbmjxs3rlhgNZLlH/3oR1PMJp9jjjnS9NNPX0qd8oHGJfb51VdfLU48/P73vy/Ksrz00ksDPcTfCBAgQIAAAQIECBAgQIAAAQKjRkDifNQMtR0l0DmBSBIvvvjiKZLnX/jCF4pkepn1zwfak0gIR0I8kulvvPFGkXdXiBAAACRtSURBVByOci7xE7PR4ycSxD3/j4R7/MSs60is9zw2fo/niv2KZHgkymPWeJwomG666Yrk+EwzzZRmnXXWog75LLPM8sH/Z5555hR/GzNmTPHYeI5uzSavZRWLsN50003p+HzxzwsuuKAoeRP7bSNAgAABAgQIECBAgAABAgQIEPiPgMS5SCBAoGWBSCYvuOCCRfmWLbfcMs0wwwwtP1e3HxhJ8p5FR6McTCTeY+tJmMe/kQAvu/Z4p12ivM2RRx6ZYpb5iy++2Omn93wECBAgQIAAAQIECBAgQIAAgREhIHE+IobRThDorkDMwF5hhRXSFltskdZYY40imR6z0m3DQ+C1115Ld9xxR1GO5fTTT08PPPDABycGhkcP9YIAAQIECBAgQIAAAQIECBAgMLwEJM6H13joDYFKC0RpkvHjx6dNNtkkfe5znytqoA+XEi6Vhm2x81Fu5sYbb0wnnnhiuuSSS9JDDz0kYd6ipYcRIECAAAECBAgQIECAAAECo0tA4nx0jbe9JVCKQNTznn/++dM222yTttpqq+L/URt8ONX5LgWiC41EmZlYCPWWW25JxxxzTDr33HOVZOnCOGiSAAECBAgQIECAAAECBAgQqLaAxHm1x0/vCQxrgSmmmCLNPffcaa211krrr79+WnnlldOcc86Z4nZbZwVidvmDDz6YLrvssnThhRemq666qlgANWq32wgQIECAAAECBAgQIECAAAECBJoTkDhvzsu9CRBoQSDKtcw444xp4YUXThtvvHHadNNN06KLLiqB3oJl74dEUvztt99O11xzTTrllFOKciyPP/54euONN5KEeW8p/ydAgAABAgQIECBAgAABAgQINCcgcd6cl3sTINCmQJRrmWOOOYpZ6JFEX3755dO4cePStNNOq5RLA7bvvfdeisU+H3300XTllVemv/71r+mGG24obpMsbwDQXQgQIECAAAECBAgQIECAAAECDQhInDeA5C4ECHReYLLJJkvTTz99MQs9kuerrLJKUcpl3nnnLZLo8XfbfwT+/e9/p1deeSXdc889xezyKMNy8803p8cee6yYcc6JAAECBAgQIECAAAECBAgQIECgswIS55319GwECLQgELPQp5566jTbbLOl5ZZbLm2yySZpwoQJRX30uH00bjF7PEqu3HfffemCCy5I5513XrrrrruKBPq7776rFMtoDAr7TIAAAQIECBAgQIAAAQIECJQmIHFeGrWGCBBoVKCnnEsk0WMm+jLLLJMWWmihNPvss6cZZpghTTnllI0+VSXu11Or/OWXX05PPvlkeuCBB4qZ5VdffXW68847U9yuDEslhlInCRAgQIAAAQIECBAgQIAAgREiIHE+QgbSbhAYqQKRJJ9pppmK2ecLLLBAWnzxxdOSSy6Zxo8fX9wWi45ONdVUqUqlXaL0Sizq+cILL6SHH3443X777emOO+5Id999d3rkkUfS008/nV5//fX0/vvvj9RhtV8ECBAgQIAAAQIECBAgQIAAgWEtIHE+rIdH5wgQqCUQSfJIls8zzzxpqaWWSquuumrx78ILL1yUe5luuunS5JNPXjy0mwn1nlniUVrl1VdfTc8880wxg/y2225LUac8Sq9EklyCvNYou40AAQIECBAgQIAAAQIECBAg0D0BifPu2WuZAIEOCURyPJLlM888c5prrrmKmeixyOjcc8+dxo0bl8aOHZtmmWWWosxLLEga942Z7PEzxRRTFEn2+De2gRLtvRPhkex+7733UiTFY/Z41COP5Hj8PP/888XPxIkTiwU8YxHPJ554okicR9mVuL+NAAECBAgQIECAAAECBAgQIEBg+ApInA/fsdEzAgRaFIjkd9RJj5+YmR4LjE4zzTRp2mmnLX7GjBmT4ifqpUcSPf7ek0yP0i+1kuc9s8YjYR5lVN58883iJxLlr732WnrrrbeK5Hkk0CMx/s477xRJ9bh/lGaxESBAgAABAgQIECBAgAABAgQIVEdA4rw6Y6WnBAgQIECAAAECBAgQIECAAAECBAgQIFCCgMR5CciaIECAAAECBAgQIECAAAECBAgQIECAAIHqCEicV2es9JQAAQIECBAgQIAAAQIECBAgQIAAAQIEShCQOC8BWRMECBAgQIAAAQIECBAgQIAAAQIECBAgUB0BifPqjJWeEiBAgAABAgQIECBAgAABAgQIECBAgEAJAhLnJSBrggABAgQIECBAgAABAgQIECBAgAABAgSqIyBxXp2x0lMCBAgQIECAAAECBAgQIECAAAECBAgQKEFA4rwEZE0QIECAAAECBAgQIECAAAECBAgQIECAQHUEJM6rM1Z6SoAAAQIECBAgQIAAAQIECBAgQIAAAQIlCEicl4CsCQIECBAgQIAAAQIECBAgQIAAAQIECBCojoDEeXXGSk8JECBAgAABAgQIECBAgAABAgQIECBAoAQBifMSkDVBgAABAgQIECBAgAABAgQIECBAgAABAtURkDivzljpKQECBAgQIECAAAECBAgQIECAAAECBAiUICBxXgKyJggQIECAAAECBAgQIECAAAECBAgQIECgOgIS59UZKz0lQIAAAQIECBAgQIAAAQIECBAgQIAAgRIEJM5LQNYEAQIECBAgQIAAAQIECBAgQIAAAQIECFRHQOK8OmOlpwQIECBAgAABAgQIECBAgAABAgQIECBQgoDEeQnImiBAgAABAgQIECBAgAABAgQIECBAgACB6ghInFdnrPSUAAECBAgQIECAAAECBAgQIECAAAECBEoQkDgvAVkTBAgQIECAAAECBAgQIECAAAECBAgQIFAdAYnz6oyVnhIgQIAAAQIECBAgQIAAAQIECBAgQIBACQIS5yUga4IAAQIECBAgQIAAAQIECBAgQIAAAQIEqiMgcV6dsdJTAgQIECBAgAABAgQIECBAgAABAgQIEChBQOK8BGRNECBAgAABAgQIECBAgAABAgQIECBAgEB1BCTOqzNWekqAAAECBAgQIECAAAECBAgQIECAAAECJQhInJeArAkCBAgQIECAAAECBAgQIECAAAECBAgQqI6AxHl1xkpPCRAgQIAAAQIECBAgQIAAAQIECBAgQKAEAYnzEpA1QYAAAQIECBAgQIAAAQIECBAgQIAAAQLVEZA4r85Y6SkBAgQIECBAgAABAgQIECBAgAABAgQIlCAgcV4CsiYIECBAgAABAgQIECBAgAABAgQIECBAoDoCEufVGSs9JUCAAAECBAgQIECAAAECBAgQIECAAIESBCTOS0DWBAECBAgQIECAAAECBAgQIECAAAECBAhUR0DivDpjpacECBAgQIAAAQIECBAgQIAAAQIECBAgUIKAxHkJyJogQIAAAQIECBAgQIAAAQIECBAgQIAAgeoISJxXZ6z0lAABAgQIECBAgAABAgQIECBAgAABAgRKEJA4LwFZEwQIECBAgAABAgQIECBAgAABAgQIECBQHQGJ8+qMlZ4SIECAAAECBAgQIECAAAECBAgQIECAQAkCEuclIGuCAAECBAgQIECAAAECBAgQIECAAAECBKojIHFenbHSUwIECBAgQIAAAQIECBAgQIAAAQIECBAoQUDivARkTRAgQIAAAQIECBAgQIAAAQIECBAgQIBAdQQkzqszVnpKgAABAgQIECBAgAABAgQIECBAgAABAiUISJyXgKwJAgQIECBAgAABAgQIECBAgAABAgQIEKiOgMR5dcZKTwkQIECAAAECBAgQIECAAAECBAgQIECgBAGJ8xKQNUGAAAECBAgQIECAAAECBAgQIECAAAEC1RGQOK/OWOkpAQIECBAgQIAAAQIECBAgQIAAAQIECJQgIHFeArImCBAgQIAAAQIECBAgQIAAAQIECBAgQKA6AhLn1RkrPSVAgAABAgQIECBAgAABAgQIECBAgACBEgQkzktA1gQBAgQIECBAgAABAgQIECBAgAABAgQIVEdA4rw6Y6WnBAgQIECAAAECBAgQIECAAAECBAgQIFCCgMR5CciaIECAAAECBAgQIECAAAECBAgQIECAAIHqCEicV2es9JQAAQIECBAgQIAAAQIECBAgQIAAAQIEShCQOC8BWRMECBAgQIAAAQIECBAgQIAAAQIECBAgUB0BifPqjJWeEiBAgAABAgQIECBAgAABAgQIECBAgEAJAhLnJSBrggABAgQIECBAgAABAgQIECBAgAABAgSqIyBxXp2x0lMCBAgQIECAAAECBAgQIECAAAECBAgQKEFA4rwEZE0QIECAAAECBAgQIECAAAECBAgQIECAQHUEJM6rM1Z6SoAAAQIECBAgQIAAAQIECBAgQIAAAQIlCEicl4CsCQIECBAgQIAAAQIECBAgQIAAAQIECBCojoDEeXXGSk8JECBAgAABAgQIECBAgAABAgQIECBAoAQBifMSkDVBgAABAgQIECBAgAABAgQIECBAgAABAtURkDivzljpKQECBAgQIECAAAECBAgQIECAAAECBAiUICBxXgKyJggQIECAAAECBAgQIECAAAECBAgQIECgOgIS59UZKz0lQIAAAQIECBAgQIAAAQIECBAgQIAAgRIEJM5LQNYEAQIECBAgQIAAAQIECBAgQIAAAQIECFRHQOK8OmOlpwQIECBAgAABAgQIECBAgAABAgQIECBQgoDEeQnImiBAgAABAgQIECBAgAABAgQIECBAgACB6ghInFdnrPSUAAECBAgQIECAAAECBAgQIECAAAECBEoQkDgvAVkTBAgQIECAAAECBAgQIECAAAECBAgQIFAdAYnz6oyVnhIgQIAAAQIECBAgQIAAAQIECBAgQIBACQIS5yUga4IAAQIECBAgQIAAAQIECBAgQIAAAQIEqiMgcV6dsdJTAgQIECBAgAABAgQIECBAgAABAgQIEChBQOK8BGRNECBAgAABAgQIECBAgAABAgQIECBAgEB1BCTOqzNWekqAAAECBAgQIECAAAECBAgQIECAAAECJQhInJeArAkCBAgQIECAAAECBAgQIECAAAECBAgQqI6AxHl1xkpPCRAgQIAAAQIECBAgQIAAAQIECBAgQKAEAYnzEpA1QYAAAQIECBAgQIAAAQIECBAgQIAAAQLVEZA4r85Y6SkBAgQIECBAgAABAgQIECBAgAABAgQIlCAgcV4CsiYIECBAgAABAgQIECBAgAABAgQIECBAoDoCEufVGSs9JUCAAAECBAgQIECAAAECBAgQIECAAIESBCTOS0DWBAECBAgQIECAAAECBAgQIECAAAECBAhUR0DivDpjpacECBAgQIAAAQIECBAgQIAAAQIECBAgUIKAxHkJyJogQIAAAQIECBAgQIAAAQIECBAgQIAAgeoISJxXZ6z0lAABAgQIECBAgAABAgQIECBAgAABAgRKEJA4LwFZEwQIECBAgAABAgQIECBAgAABAgQIECBQHQGJ8+qMlZ4SIECAAAECBAgQIECAAAECBAgQIECAQAkCEuclIGuCAAECBAgQIECAAAECBAgQIECAAAECBKojIHFenbHSUwIECBAgQIAAAQIECBAgQIAAAQIECBAoQUDivARkTRAgQIAAAQIECBAgQIAAAQIECBAgQIBAdQQkzqszVnpKgAABAgQIECBAgAABAgQIECBAgAABAiUISJyXgKwJAgQIECBAgAABAgQIECBAgAABAgQIEKiOgMR5dcZKTwkQIECAAAECBAgQIECAAAECBAgQIECgBAGJ8xKQNUGAAAECBAgQIECAAAECBAgQIECAAAEC1RGQOK/OWOkpAQIECBAgQIAAAQIECBAgQIAAAQIECJQgIHFeArImCBAgQIAAAQIECBAgQIAAAQIECBAgQKA6AhLn1RkrPSVAgAABAgQIECBAgAABAgQIECBAgACBEgQkzktA1gQBAgQIECBAgAABAgQIECBAgAABAgQIVEdA4rw6Y6WnBAgQIECAAAECBAgQIECAAAECBAgQIFCCgMR5CciaIECAAAECBAgQIECAAAECBAgQIECAAIHqCEicV2es9JQAAQIECBAgQIAAAQIECBAgQIAAAQIEShCQOC8BWRMECBAgQIAAAQIECBAgQIAAAQIECBAgUB0BifPqjJWeEiBAgAABAgQIECBAgAABAgQIECBAgEAJAhLnJSBrggABAgQIECBAgAABAgQIECBAgAABAgSqIyBxXp2x0lMCBAgQIECAAAECBAgQIECAAAECBAgQKEFA4rwEZE0QIECAAAECBAgQIECAAAECBAgQIECAQHUEJM6rM1Z6SoAAAQIECBAgQIAAAQIECBAgQIAAAQIlCEicl4CsCQIECBAgQIAAAQIECBAgQIAAAQIECBCojoDEeXXGSk8JECBAgAABAgQIECBAgAABAgQIECBAoAQBifMSkDVBgAABAgQIECBAgAABAgQIECBAgAABAtURkDivzljpKQECBAgQIECAAAECBAgQIECAAAECBAiUICBxXgKyJggQIECAAAECBAgQIECAAAECBAgQIECgOgIS59UZKz0lQIAAAQIECBAgQIAAAQIECBAgQIAAgRIEJM5LQNYEAQIECBAgQIAAAQIECBAgQIAAAQIECFRHQOK8OmOlpwQIECBAgAABAgQIECBAgAABAgQIECBQgoDEeQnImiBAgAABAgQIECBAgAABAgQIECBAgACB6ghInFdnrPSUAAECBAgQIECAAAECBAgQIECAAAECBEoQkDgvAVkTBAgQIECAAAECBAgQIECAAAECBAgQIFAdAYnz6oyVnhIgQIAAAQIECBAgQIAAAQIECBAgQIBACQIS5yUga4IAAQIECBAgQIAAAQIECBAgQIAAAQIEqiMgcV6dsdJTAgQIECBAgAABAgQIECBAgAABAgQIEChBQOK8BGRNECBAgAABAgQIECBAgAABAgQIECBAgEB1BCTOqzNWekqAAAECBAgQIECAAAECBAgQIECAAAECJQhInJeArAkCBAgQIECAAAECBAgQIECAAAECBAgQqI6AxHl1xkpPCRAgQIAAAQIECBAgQIAAAQIECBAgQKAEAYnzEpA1QYAAAQIECBAgQIAAAQIECBAgQIAAAQLVEZA4r85Y6SkBAgQIECBAgAABAgQIECBAgAABAgQIlCAgcV4CsiYIECBAgAABAgQIECBAgAABAgQIECBAoDoCEufVGSs9JUCAAAECBAgQIECAAAECBAgQIECAAIESBCTOS0DWBAECBAgQIECAAAECBAgQIECAAAECBAhUR0DivDpjpacECBAgQIAAAQIECBAgQIAAAQIECBAgUIKAxHkJyJogQIAAAQIECBAgQIAAAQIECBAgQIAAgeoISJxXZ6z0lAABAgQIECBAgAABAgQIECBAgAABAgRKEJA4LwFZEwQIECBAgAABAgQIECBAgAABAgQIECBQHQGJ8+qMlZ4SIECAAAECBAgQIECAAAECBAgQIECAQAkCEuclIGuCAAECBAgQIECAAAECBAgQIECAAAECBKojIHFenbHSUwIECBAgQIAAAQIECBAgQIAAAQIECBAoQUDivARkTRAgQIAAAQIECBAgQIAAAQIECBAgQIBAdQQkzqszVnpKgAABAgQIECBAgAABAgQIECBAgAABAiUISJyXgKwJAgQIECBAgAABAgQIECBAgAABAgQIEKiOgMR5dcZKTwkQIECAAAECBAgQIECAAAECBAgQIECgBAGJ8xKQNUGAAAECBAgQIECAAAECBAgQIECAAAEC1RGQOK/OWOkpAQIECBAgQIAAAQIECBAgQIAAAQIECJQgIHFeArImCBAgQIAAAQIECBAgQIAAAQIECBAgQKA6AhLn1RkrPSVAgAABAgQIECBAgAABAgQIECBAgACBEgQkzktA1gQBAgQIECBAgAABAgQIECBAgAABAgQIVEdA4rw6Y6WnBAgQIECAAAECBAgQIECAAAECBAgQIFCCgMR5CciaIECAAAECBAgQIECAAAECBAgQIECAAIHqCEicV2es9JQAAQIECBAgQIAAAQIECBAgQIAAAQIEShCQOC8BWRMECBAgQIAAAQIECBAgQIAAAQIECBAgUB0BifPqjJWeEiBAgAABAgQIECBAgAABAgQIECBAgEAJAhLnJSBrggABAgQIECBAgAABAgQIECBAgAABAgSqIyBxXp2x0lMCBAgQIECAAAECBAgQIECAAAECBAgQKEFA4rwEZE0QIECAAAECBAgQIECAAAECBAgQIECAQHUEJM6rM1Z6SoAAAQIECBAgQIAAAQIECBAgQIAAAQIlCEicl4CsCQIECBAgQIAAAQIECBAgQIAAAQIECBCojoDEeXXGSk8JECBAgAABAgQIECBAgAABAgQIECBAoAQBifMSkDVBgAABAgQIECBAgAABAgQIECBAgAABAtURkDivzljpKQECBAgQIECAAAECBAgQIECAAAECBAiUICBxXgKyJggQIECAAAECBAgQIECAAAECBAgQIECgOgIS59UZKz0lQIAAAQIECBAgQIAAAQIECBAgQIAAgRIEJM5LQNYEAQIECBAgQIAAAQIECBAgQIAAAQIECFRHQOK8OmOlpwQIECBAgAABAgQIECBAgAABAgQIECBQgoDEeQnImiBAgAABAgQIECBAgAABAgQIECBAgACB6ghInFdnrPSUAAECBAgQIECAAAECBAgQIECAAAECBEoQkDgvAVkTBAgQIECAAAECBAgQIECAAAECBAgQIFAdAYnz6oyVnhIgQIAAAQIECBAgQIAAAQIECBAgQIBACQIS5yUga4IAAQIECBAgQIAAAQIECBAgQIAAAQIEqiMgcV6dsdJTAgQIECBAgAABAgQIECBAgAABAgQIEChBQOK8BGRNECBAgAABAgQIECBAgAABAgQIECBAgEB1BCTOqzNWekqAAAECBAgQIECAAAECBAgQIECAAAECJQhInJeArAkCBAgQIECAAAECBAgQIECAAAECBAgQqI6AxHl1xkpPCRAgQIAAAQIECBAgQIAAAQIECBAgQKAEAYnzEpA1QYAAAQIECBAgQIAAAQIECBAgQIAAAQLVEZA4r85Y6SkBAgQIECBAgAABAgQIECBAgAABAgQIlCAgcV4CsiYIECBAgAABAgQIECBAgAABAgQIECBAoDoCEufVGSs9JUCAAAECBAgQIECAAAECBAgQIECAAIESBCTOS0DWBAECBAgQIECAAAECBAgQIECAAAECBAhUR0DivDpjpacECBAgQIAAAQIECBAgQIAAAQIECBAgUIKAxHkJyJogQIAAAQIECBAgQIAAAQIECBAgQIAAgeoISJxXZ6z0lAABAgQIECBAgAABAgQIECBAgAABAgRKEJA4LwFZEwQIECBAgAABAgQIECBAgAABAgQIECBQHQGJ8+qMlZ4SIECAAAECBAgQIECAAAECBAgQIECAQAkCEuclIGuCAAECBAgQIECAAAECBAgQIECAAAECBKojIHFenbHSUwIECBAgQIAAAQIECBAgQIAAAQIECBAoQUDivARkTRAgQIAAAQIECBAgQIAAAQIECBAgQIBAdQQkzqszVnpKgAABAgQIECBAgAABAgQIECBAgAABAiUISJyXgKwJAgQIECBAgAABAgQIECBAgAABAgQIEKiOgMR5dcZKTwkQIECAAAECBAgQIECAAAECBAgQIECgBAGJ8xKQNUGAAAECBAgQIECAAAECBAgQIECAAAEC1RGQOK/OWOkpAQIECBAgQIAAAQIECBAgQIAAAQIECJQgIHFeArImCBAgQIAAAQIECBAgQIAAAQIECBAgQKA6AhLn1RkrPSVAgAABAgQIECBAgAABAgQIECBAgACBEgQkzktA1gQBAgQIECBAgAABAgQIECBAgAABAgQIVEdA4rw6Y6WnBAgQIECAAAECBAgQIECAAAECBAgQIFCCgMR5CciaIECAAAECBAgQIECAAAECBAgQIECAAIHqCEicV2es9JQAAQIECBAgQIAAAQIECBAgQIAAAQIEShCQOC8BWRMECBAgQIAAAQIECBAgQIAAAQIECBAgUB0BifPqjJWeEiBAgAABAgQIECBAgAABAgQIECBAgEAJAhLnJSBrggABAgQIECBAgAABAgQIECBAgAABAgSqIyBxXp2x0lMCBAgQIECAAAECBAgQIECAAAECBAgQKEFA4rwEZE0QIECAAAECBAgQIECAAAECBAgQIECAQHUEJM6rM1Z6SoAAAQIECBAgQIAAAQIECBAgQIAAAQIlCEicl4CsCQIECBAgQIAAAQIECBAgQIAAAQIECBCojoDEeXXGSk8JECBAgAABAgQIECBAgAABAgQIECBAoAQBifMSkDVBgAABAgQIECBAgAABAgQIECBAgAABAtURkDivzljpKQECBAgQIECAAAECBAgQIECAAAECBAiUICBxXgKyJggQIECAAAECBAgQIECAAAECBAgQIECgOgIS59UZKz0lQIAAAQIECBAgQIAAAQIECBAgQIAAgRIEJM5LQNYEAQIECBAgQIAAAQIECBAgQIAAAQIECFRHQOK8OmOlpwQIECBAgAABAgQIECBAgAABAgQIECBQgoDEeQnImiBAgAABAgQIECBAgAABAgQIECBAgACB6ghInFdnrPSUAAECBAgQIECAAAECBAgQIECAAAECBEoQkDgvAVkTBAgQIECAAAECBAgQIECAAAECBAgQIFAdAYnz6oyVnhIgQIAAAQIECBAgQIAAAQIECBAgQIBACQIS5yUga4IAAQIECBAgQIAAAQIECBAgQIAAAQIEqiMgcV6dsdJTAgQIECBAgAABAgQIECBAgAABAgQIEChBQOK8BGRNECBAgAABAgQIECBAgAABAgQIECBAgEB1BCTOqzNWekqAAAECBAgQIECAAAECBAgQIECAAAECJQhInJeArAkCBAgQIECAAAECBAgQIECAAAECBAgQqI6AxHl1xkpPCRAgQIAAAQIECBAgQIAAAQIECBAgQKAEAYnzEpA1QYAAAQIECBAgQIAAAQIECBAgQIAAAQLVEZA4r85Y6SkBAgQIECBAgAABAgQIECBAgAABAgQIlCAgcV4CsiYIECBAgAABAgQIECBAgAABAgQIECBAoDoCEufVGSs9JUCAAAECBAgQIECAAAECBAgQIECAAIESBCTOS0DWBAECBAgQIECAAAECBAgQIECAAAECBAhUR0DivDpjpacECBAgQIAAAQIECBAgQIAAAQIECBAgUIKAxHkJyJogQIAAAQIECBAgQIAAAQIECBAgQIAAgeoISJxXZ6z0lAABAgQIECBAgAABAgQIECBAgAABAgRKEJA4LwFZEwQIECBAgAABAgQIECBAgAABAgQIECBQHQGJ8+qMlZ4SIECAAAECBAgQIECAAAECBAgQIECAQAkCEuclIGuCAAECBAgQIECAAAECBAgQIECAAAECBKojIHFenbHSUwIECBAgQIAAAQIECBAgQIAAAQIECBAoQUDivARkTRAgQIAAAQIECBAgQIAAAQIECBAgQIBAdQQkzqszVnpKgAABAgQIECBAgAABAgQIECBAgAABAiUISJyXgKwJAgQIECBAgAABAgQIECBAgAABAgQIEKiOgMR5dcZKTwkQIECAAAECBAgQIECAAAECBAgQIECgBAGJ8xKQNUGAAAECBAgQIECAAAECBAgQIECAAAEC1RGQOK/OWOkpAQIECBAgQIAAAQIECBAgQIAAAQIECJQgIHFeArImCBAgQIAAAQIECBAgQIAAAQIECBAgQKA6AhLn1RkrPSVAgAABAgQIECBAgAABAgQIECBAgACBEgQkzktA1gQBAgQIECBAgAABAgQIECBAgAABAgQIVEdA4rw6Y6WnBAgQIECAAAECBAgQIECAAAECBAgQIFCCgMR5CciaIECAAAECBAgQIECAAAECBAgQIECAAIHqCEicV2es9JQAAQIECBAgQIAAAQIECBAgQIAAAQIEShCQOC8BWRMECBAgQIAAAQIECBAgQIAAAQIECBAgUB0BifPqjJWeEiBAgAABAgQIECBAgAABAgQIECBAgEAJAhLnJSBrggABAgQIECBAgAABAgQIECBAgAABAgSqIyBxXp2x0lMCBAgQIECAAAECBAgQIECAAAECBAgQKEFA4rwEZE0QIECAAAECBAgQIECAAAECBAgQIECAQHUEJM6rM1Z6SoAAAQIECBAgQIAAAQIECBAgQIAAAQIlCEicl4CsCQIECBAgQIAAAQIECBAgQIAAAQIECBCojoDEeXXGSk8JECBAgAABAgQIECBAgAABAgQIECBAoAQBifMSkDVBgAABAgQIECBAgAABAgQIECBAgAABAtURkDivzljpKQECBAgQIECAAAECBAgQIECAAAECBAiUICBxXgKyJggQIECAAAECBAgQIECAAAECBAgQIECgOgL/HxVBdz6QknhYAAAAAElFTkSuQmCC;clipPath=inset(14.03% 0% 23.38% 0%);" vertex="1" parent="1">
          <mxGeometry x="-300" y="-80" width="1098.34" height="318.5186" as="geometry" />
        </mxCell>
        <mxCell id="6CFEBmQpigZl-cbhVpuX-2" value="" style="rounded=0;whiteSpace=wrap;html=1;" vertex="1" parent="1">
          <mxGeometry x="40" y="290" width="410" height="100" as="geometry" />
        </mxCell>
        <mxCell id="6CFEBmQpigZl-cbhVpuX-3" value="" style="rounded=0;whiteSpace=wrap;html=1;" vertex="1" parent="1">
          <mxGeometry x="-40.83" y="420" width="580" height="120" as="geometry" />
        </mxCell>
        <mxCell id="6CFEBmQpigZl-cbhVpuX-4" value="Login to access" style="text;html=1;align=center;verticalAlign=middle;whiteSpace=wrap;rounded=0;" vertex="1" parent="1">
          <mxGeometry x="160" y="325" width="150" height="30" as="geometry" />
        </mxCell>
        <mxCell id="6CFEBmQpigZl-cbhVpuX-5" value="Take me to main page" style="text;html=1;align=center;verticalAlign=middle;whiteSpace=wrap;rounded=0;" vertex="1" parent="1">
          <mxGeometry x="80" y="465" width="310" height="30" as="geometry" />
        </mxCell>
      </root>
    </mxGraphModel>
  </diagram>
</mxfile>
